<svg id="svg" version="1.1" xmlns="http://www.w3.org/2000/svg" xmlns:xlink="http://www.w3.org/1999/xlink" width="400" height="459.7701149425287" viewBox="0, 0, 400,459.7701149425287"><g id="svgg"><path id="path0" d="M177.000 58.800 L 175.400 59.000 175.520 75.600 C 175.585 84.730,175.675 110.200,175.720 132.200 L 175.800 172.200 119.219 172.301 C 80.467 172.371,62.505 172.535,62.219 172.822 C 61.566 173.474,61.643 222.434,62.297 223.126 C 62.850 223.710,153.253 223.812,165.400 223.241 C 166.060 223.210,167.140 223.247,167.800 223.323 C 168.460 223.399,170.292 223.492,171.871 223.530 C 176.476 223.642,176.033 219.127,175.833 263.932 C 175.736 285.420,175.542 310.142,175.400 318.872 C 175.215 330.211,175.268 334.980,175.586 335.575 C 176.031 336.405,176.077 336.406,200.716 336.303 L 225.400 336.200 225.253 280.339 L 225.107 224.478 225.927 224.039 C 226.511 223.726,242.541 223.600,281.574 223.600 L 336.400 223.600 336.447 220.900 C 336.637 210.063,336.694 174.748,336.523 173.701 L 336.311 172.403 280.856 172.301 L 225.400 172.200 225.388 115.721 C 225.381 84.658,225.274 59.140,225.148 59.015 C 224.864 58.731,179.188 58.527,177.000 58.800 M265.636 74.156 C 265.383 74.462,264.314 75.083,263.261 75.536 C 262.082 76.043,261.169 76.751,260.882 77.379 C 260.626 77.941,260.178 78.400,259.885 78.400 C 258.363 78.400,247.200 89.317,247.200 90.805 C 247.200 91.079,246.550 92.023,245.755 92.902 C 244.961 93.782,243.780 95.635,243.131 97.022 C 242.482 98.408,241.692 99.758,241.374 100.021 C 240.584 100.677,238.002 104.976,237.992 105.652 C 237.987 105.954,237.042 107.201,235.892 108.425 C 234.741 109.648,233.215 111.499,232.500 112.536 L 231.200 114.423 231.200 126.588 C 231.200 134.412,231.345 138.843,231.607 139.005 C 232.169 139.352,234.493 137.851,236.808 135.645 C 237.874 134.630,239.736 132.990,240.948 132.000 C 242.159 131.010,243.332 129.808,243.553 129.330 C 243.774 128.851,244.589 127.771,245.362 126.930 C 248.193 123.852,248.785 123.084,249.584 121.458 C 250.033 120.546,250.955 119.174,251.633 118.408 C 252.311 117.642,253.110 116.431,253.409 115.717 C 253.707 115.002,254.136 114.189,254.362 113.909 C 254.588 113.629,255.318 112.746,255.986 111.947 C 256.654 111.148,257.200 110.277,257.200 110.012 C 257.200 109.746,258.010 108.603,259.000 107.471 C 259.990 106.340,260.800 105.255,260.800 105.062 C 260.800 104.529,262.677 102.325,265.900 99.073 C 267.495 97.464,268.800 95.948,268.800 95.705 C 268.800 95.074,272.961 91.600,273.716 91.600 C 274.063 91.600,274.461 91.238,274.601 90.796 C 274.742 90.353,275.398 89.711,276.059 89.369 C 276.721 89.027,278.018 88.174,278.943 87.474 C 279.867 86.773,281.293 85.844,282.112 85.409 C 284.479 84.151,283.569 82.218,279.900 80.713 C 279.515 80.555,279.200 80.240,279.200 80.013 C 279.200 79.786,278.936 79.600,278.614 79.600 C 278.292 79.600,277.413 79.060,276.661 78.400 C 275.909 77.740,275.147 77.200,274.968 77.200 C 274.788 77.200,273.434 76.390,271.958 75.400 C 269.112 73.490,266.599 72.996,265.636 74.156 M128.800 75.082 C 128.061 75.352,121.670 79.574,120.749 80.400 C 120.382 80.730,119.418 81.450,118.607 82.000 C 114.841 84.556,114.236 85.791,115.847 87.631 C 116.151 87.979,116.400 88.391,116.400 88.548 C 116.400 88.705,116.574 89.051,116.788 89.317 C 117.001 89.583,118.022 90.880,119.056 92.200 C 123.599 97.996,130.328 104.245,134.139 106.208 C 134.985 106.643,136.104 107.391,136.626 107.869 C 137.147 108.347,137.940 108.854,138.387 108.996 C 138.834 109.138,139.200 109.397,139.200 109.573 C 139.200 109.748,139.994 110.195,140.965 110.565 C 141.935 110.936,142.830 111.500,142.952 111.820 C 143.075 112.139,143.426 112.400,143.732 112.400 C 144.039 112.400,144.969 112.940,145.800 113.600 C 146.631 114.260,147.474 114.800,147.674 114.800 C 147.874 114.800,148.478 115.275,149.016 115.855 C 149.554 116.435,150.548 117.319,151.225 117.819 C 152.550 118.796,159.021 124.652,159.755 125.537 C 160.000 125.833,161.280 127.293,162.600 128.781 C 163.920 130.270,165.803 132.419,166.784 133.557 C 169.717 136.959,169.674 137.124,169.618 122.617 L 169.569 109.835 168.484 108.461 C 167.888 107.705,166.937 106.433,166.372 105.635 C 165.144 103.900,159.307 98.000,158.818 98.000 C 158.630 98.000,157.694 97.347,156.738 96.548 C 155.049 95.137,150.897 92.261,145.842 89.000 C 144.478 88.120,142.690 86.725,141.868 85.900 C 141.046 85.075,140.208 84.400,140.005 84.400 C 139.580 84.400,138.536 83.358,136.000 80.405 C 131.314 74.948,130.604 74.423,128.800 75.082 M287.800 91.900 C 286.260 92.931,284.940 93.916,284.867 94.088 C 284.793 94.259,284.510 94.400,284.236 94.400 C 283.963 94.400,283.317 94.850,282.800 95.400 C 282.283 95.950,281.622 96.400,281.330 96.400 C 281.039 96.400,280.800 96.547,280.800 96.726 C 280.800 96.905,279.990 97.658,279.000 98.400 C 278.010 99.142,277.200 99.888,277.200 100.059 C 277.200 100.230,276.382 101.211,275.381 102.241 C 274.381 103.270,273.298 104.582,272.975 105.156 C 272.652 105.730,271.498 107.280,270.411 108.600 C 269.323 109.920,267.765 111.990,266.948 113.200 C 266.130 114.410,264.953 115.991,264.331 116.714 C 263.709 117.437,263.200 118.343,263.200 118.728 C 263.200 119.113,262.756 119.962,262.214 120.614 C 259.275 124.148,258.291 125.452,257.719 126.567 C 257.080 127.815,256.307 128.850,253.769 131.861 C 252.998 132.775,251.631 134.620,250.731 135.961 C 249.830 137.303,248.953 138.400,248.781 138.400 C 248.609 138.400,247.508 139.312,246.334 140.427 C 245.160 141.543,243.570 142.838,242.800 143.307 C 242.030 143.775,241.130 144.438,240.800 144.779 C 239.893 145.716,237.129 147.801,236.000 148.401 C 231.692 150.685,231.200 151.790,231.200 159.170 L 231.200 165.179 232.303 165.750 C 234.000 166.627,243.171 166.638,244.895 165.764 C 246.830 164.783,252.154 161.147,252.501 160.569 C 252.667 160.293,254.017 159.114,255.501 157.950 C 256.985 156.785,258.687 155.375,259.281 154.816 C 259.876 154.257,261.187 153.080,262.196 152.200 C 265.744 149.104,267.460 147.361,268.212 146.087 C 268.630 145.379,269.100 144.800,269.256 144.800 C 269.411 144.800,270.361 143.564,271.365 142.052 C 272.370 140.541,273.464 139.079,273.796 138.803 C 274.128 138.528,274.400 138.071,274.400 137.789 C 274.400 137.507,275.023 136.531,275.783 135.620 C 276.544 134.709,278.917 131.317,281.057 128.082 C 283.197 124.847,285.274 121.878,285.674 121.484 C 286.073 121.091,286.400 120.494,286.400 120.159 C 286.400 119.569,290.618 115.207,296.086 110.142 C 297.546 108.790,299.474 107.361,300.370 106.965 C 301.267 106.570,302.000 106.105,302.000 105.933 C 302.000 105.761,302.540 105.341,303.200 105.000 C 305.551 103.784,305.034 102.866,298.202 96.120 C 291.207 89.214,291.583 89.366,287.800 91.900 M101.485 96.457 C 91.782 105.598,91.809 105.478,97.911 112.800 C 98.553 113.570,99.420 114.733,99.839 115.384 C 100.683 116.697,107.865 123.999,108.315 124.002 C 108.472 124.003,109.290 124.638,110.133 125.412 C 110.977 126.187,112.584 127.285,113.705 127.853 C 114.826 128.421,115.994 129.137,116.300 129.443 C 116.606 129.749,116.990 130.000,117.153 130.000 C 117.316 130.000,117.806 130.332,118.242 130.739 C 118.678 131.145,119.498 131.730,120.064 132.039 C 120.629 132.347,121.983 133.081,123.071 133.669 C 124.160 134.257,125.291 135.028,125.586 135.383 C 125.881 135.739,127.265 136.668,128.661 137.449 C 130.057 138.230,131.200 139.123,131.200 139.434 C 131.200 139.745,131.528 140.000,131.929 140.000 C 132.330 140.000,133.592 140.855,134.733 141.900 C 135.874 142.945,137.901 144.790,139.237 146.000 C 140.573 147.210,141.960 148.695,142.319 149.300 C 142.679 149.905,143.138 150.400,143.340 150.400 C 143.840 150.400,145.427 152.151,146.728 154.140 C 147.318 155.041,148.070 156.080,148.400 156.448 C 148.730 156.817,149.405 157.568,149.900 158.116 C 150.395 158.664,150.800 159.284,150.800 159.494 C 150.800 159.704,151.140 160.184,151.556 160.560 C 151.972 160.937,152.827 162.062,153.456 163.062 C 155.234 165.888,156.518 166.348,162.697 166.372 C 169.839 166.400,169.551 166.698,169.643 159.181 C 169.690 155.444,169.552 153.057,169.258 152.508 C 169.006 152.037,168.800 151.450,168.800 151.203 C 168.800 150.798,166.977 148.257,165.700 146.881 C 165.425 146.585,165.200 146.120,165.200 145.847 C 165.200 145.574,164.795 144.922,164.300 144.399 C 163.805 143.875,162.988 142.896,162.484 142.224 C 159.901 138.771,147.500 126.042,145.799 125.095 C 144.735 124.504,140.091 121.134,139.100 120.235 C 138.715 119.886,138.220 119.600,138.000 119.600 C 137.780 119.600,137.600 119.449,137.600 119.265 C 137.600 119.081,136.565 118.417,135.300 117.788 C 134.035 117.160,132.491 116.230,131.869 115.723 C 131.247 115.215,130.504 114.800,130.218 114.800 C 129.932 114.800,129.472 114.528,129.197 114.196 C 128.921 113.864,127.367 112.592,125.742 111.369 C 121.797 108.400,114.474 101.103,110.655 96.335 C 108.103 93.150,106.875 91.938,106.267 92.008 C 106.230 92.012,104.078 94.014,101.485 96.457 M308.800 112.382 C 308.250 112.788,306.184 114.173,304.209 115.460 C 302.233 116.747,300.325 118.070,299.969 118.400 C 299.612 118.730,298.978 119.302,298.560 119.672 C 297.576 120.542,296.800 121.495,296.800 121.835 C 296.800 121.982,296.215 122.759,295.500 123.561 C 294.785 124.362,293.750 125.618,293.200 126.351 C 292.650 127.084,291.534 128.475,290.721 129.442 C 289.908 130.409,288.768 132.143,288.189 133.296 C 287.610 134.449,286.989 135.484,286.809 135.596 C 286.629 135.708,286.030 136.650,285.478 137.690 C 284.926 138.729,284.098 140.058,283.637 140.644 C 283.177 141.229,282.800 141.926,282.800 142.192 C 282.800 142.458,282.421 143.019,281.957 143.438 C 281.494 143.857,280.775 144.865,280.360 145.679 C 279.945 146.492,279.361 147.302,279.061 147.479 C 278.762 147.655,278.446 148.007,278.359 148.261 C 277.837 149.776,266.808 160.932,263.528 163.262 C 261.190 164.924,260.443 165.908,261.307 166.193 C 262.882 166.712,282.713 166.656,284.308 166.128 C 285.248 165.817,286.177 165.662,286.375 165.784 C 287.331 166.375,290.791 163.811,294.140 160.029 C 294.613 159.494,295.585 158.474,296.300 157.762 C 297.015 157.050,297.600 156.305,297.600 156.108 C 297.600 155.911,298.140 155.232,298.800 154.600 C 299.460 153.968,300.000 153.139,300.000 152.758 C 300.000 152.378,300.136 152.007,300.303 151.933 C 300.812 151.709,303.048 148.684,303.801 147.200 C 304.192 146.430,304.631 145.710,304.777 145.600 C 304.923 145.490,306.055 144.122,307.291 142.559 C 312.055 136.540,316.304 131.949,319.766 129.080 C 320.775 128.244,321.600 127.292,321.600 126.964 C 321.600 126.029,320.188 123.552,316.898 118.718 C 315.744 117.023,314.800 115.471,314.800 115.270 C 314.800 112.989,310.671 111.002,308.800 112.382 M86.086 114.682 C 84.111 116.738,83.373 117.702,82.566 119.281 C 82.195 120.007,81.646 120.744,81.346 120.920 C 81.046 121.096,80.800 121.430,80.800 121.662 C 80.800 121.895,80.260 122.767,79.600 123.600 C 78.940 124.433,78.394 125.359,78.387 125.658 C 78.380 125.956,78.110 126.549,77.787 126.976 C 76.746 128.353,77.134 129.693,79.704 133.600 C 83.484 139.346,90.948 147.984,92.142 147.997 C 92.331 147.998,93.167 148.540,94.000 149.200 C 94.833 149.860,95.624 150.400,95.756 150.400 C 95.967 150.400,100.232 153.371,101.438 154.357 C 101.678 154.554,102.488 155.032,103.238 155.419 C 104.713 156.183,106.870 157.628,107.213 158.083 C 107.331 158.239,108.358 158.869,109.496 159.483 C 110.635 160.097,112.649 161.635,113.973 162.900 C 115.296 164.165,116.542 165.200,116.741 165.200 C 116.939 165.200,117.326 165.470,117.600 165.800 C 118.158 166.472,142.150 166.728,142.559 166.066 C 142.810 165.660,141.244 162.400,140.797 162.400 C 140.622 162.400,140.134 161.856,139.714 161.192 C 137.298 157.377,125.654 146.000,124.165 146.000 C 124.056 146.000,122.991 145.280,121.800 144.400 C 120.609 143.520,119.516 142.800,119.371 142.800 C 119.226 142.800,117.955 141.895,116.548 140.789 C 115.141 139.683,113.496 138.560,112.894 138.294 C 112.293 138.027,111.555 137.575,111.255 137.288 C 110.955 137.001,109.782 136.173,108.648 135.448 C 107.514 134.723,106.319 133.875,105.993 133.565 C 105.667 133.254,104.680 132.511,103.800 131.914 C 101.313 130.226,94.000 122.884,94.000 122.076 C 94.000 121.850,93.291 120.928,92.425 120.026 C 91.558 119.124,90.726 117.998,90.575 117.522 C 90.425 117.047,89.873 116.197,89.351 115.633 C 88.828 115.070,88.400 114.392,88.400 114.128 C 88.400 113.014,87.475 113.235,86.086 114.682 M111.000 229.810 C 110.340 230.035,109.293 230.497,108.672 230.835 C 107.404 231.528,99.200 239.498,99.200 240.038 C 99.200 240.229,98.570 241.034,97.800 241.827 C 97.030 242.620,96.400 243.442,96.400 243.654 C 96.400 243.866,95.680 245.123,94.800 246.448 C 93.920 247.773,93.200 248.953,93.200 249.071 C 93.200 249.189,92.660 249.967,92.000 250.800 C 91.340 251.633,90.800 252.516,90.800 252.762 C 90.800 253.750,87.485 257.971,84.533 260.741 C 82.810 262.358,81.247 263.825,81.060 264.001 C 80.873 264.176,80.384 264.653,79.974 265.060 C 79.563 265.467,78.771 266.211,78.214 266.714 C 77.135 267.687,76.916 268.577,77.645 269.028 C 77.889 269.179,78.524 270.224,79.055 271.351 C 80.445 274.301,83.243 278.794,83.692 278.797 C 83.852 278.799,84.368 279.553,84.837 280.472 C 87.274 285.250,89.703 284.583,98.562 276.702 C 100.852 274.665,101.424 274.075,104.396 270.683 C 106.365 268.436,109.843 263.332,110.857 261.200 C 111.328 260.210,111.830 259.310,111.972 259.200 C 112.428 258.846,114.800 255.075,114.800 254.703 C 114.800 254.364,116.873 251.171,117.781 250.111 C 118.011 249.842,118.740 248.866,119.400 247.943 C 120.895 245.851,134.419 232.005,134.985 231.987 C 135.798 231.961,137.340 230.380,136.941 229.981 C 136.399 229.439,112.547 229.282,111.000 229.810 M153.095 229.786 C 152.267 230.024,151.135 230.710,150.579 231.309 C 150.023 231.909,149.327 232.400,149.033 232.400 C 148.739 232.400,148.254 232.694,147.955 233.054 C 147.656 233.414,146.697 234.160,145.823 234.712 C 139.669 238.597,127.621 250.780,124.678 256.094 C 124.060 257.209,123.054 258.859,122.442 259.760 C 121.830 260.662,120.625 262.743,119.765 264.384 C 118.904 266.025,117.705 267.820,117.100 268.373 C 116.495 268.926,116.000 269.769,116.000 270.246 C 116.000 270.724,115.730 271.218,115.400 271.345 C 115.070 271.471,114.800 271.846,114.800 272.178 C 114.800 272.510,113.630 273.940,112.200 275.356 C 110.770 276.772,109.600 278.116,109.600 278.342 C 109.600 278.569,109.269 278.990,108.863 279.277 C 108.458 279.565,107.912 280.205,107.649 280.700 C 107.387 281.195,106.920 281.600,106.613 281.600 C 106.305 281.600,105.946 281.915,105.814 282.300 C 105.593 282.945,104.330 284.002,101.061 286.278 C 97.869 288.501,94.401 291.450,94.400 291.942 C 94.400 293.283,104.338 303.594,107.026 305.042 C 108.242 305.697,108.315 305.687,109.830 304.657 C 110.686 304.076,111.547 303.600,111.745 303.600 C 111.943 303.600,112.981 302.970,114.053 302.200 C 115.125 301.430,116.085 300.800,116.187 300.800 C 116.289 300.800,117.620 299.540,119.145 298.000 C 120.670 296.460,122.071 295.195,122.259 295.189 C 122.446 295.183,123.050 294.563,123.600 293.812 C 124.150 293.060,125.005 292.225,125.500 291.955 C 125.995 291.685,126.400 291.134,126.400 290.729 C 126.400 290.324,126.958 289.409,127.640 288.696 C 128.778 287.507,134.000 279.883,134.000 279.411 C 134.000 279.238,136.059 276.339,137.149 274.977 C 137.335 274.745,137.699 273.912,137.958 273.126 C 138.218 272.340,138.783 271.377,139.215 270.986 C 139.647 270.596,140.000 270.062,140.000 269.800 C 140.000 269.538,140.334 269.022,140.742 268.652 C 141.150 268.283,141.896 267.179,142.401 266.199 C 142.905 265.219,143.651 264.311,144.059 264.181 C 144.466 264.052,144.800 263.767,144.800 263.548 C 144.800 261.987,160.694 246.800,162.327 246.800 C 162.540 246.800,162.815 246.538,162.938 246.217 C 163.061 245.896,163.935 245.156,164.881 244.570 C 165.826 243.985,167.275 242.861,168.100 242.072 L 169.600 240.638 169.600 235.533 C 169.600 231.064,169.512 230.381,168.894 230.050 C 167.840 229.486,154.890 229.270,153.095 229.786 M232.343 229.881 L 231.200 230.361 231.200 237.368 C 231.200 244.781,231.468 246.005,233.658 248.600 C 234.367 249.441,236.992 252.716,237.506 253.400 C 237.671 253.620,238.007 254.250,238.252 254.800 C 238.498 255.350,239.846 257.038,241.249 258.552 C 242.652 260.065,243.873 261.498,243.961 261.735 C 244.385 262.872,255.337 272.294,257.125 273.061 C 257.716 273.314,258.709 273.994,259.332 274.571 C 259.955 275.149,261.665 276.276,263.132 277.075 C 264.599 277.875,266.340 278.953,267.000 279.471 C 268.587 280.716,268.490 280.642,272.400 283.595 C 278.574 288.259,284.966 294.119,286.988 296.970 C 292.840 305.216,292.447 305.055,296.521 300.900 C 306.190 291.038,305.600 291.741,305.600 290.074 C 305.600 288.987,305.297 288.178,304.584 287.362 C 304.026 286.723,303.177 285.570,302.698 284.800 C 302.218 284.030,301.407 282.950,300.895 282.400 C 300.382 281.850,299.586 280.797,299.125 280.061 C 298.297 278.739,292.117 272.406,291.644 272.394 C 291.510 272.391,290.336 271.401,289.036 270.194 C 287.735 268.987,286.540 268.000,286.379 268.000 C 286.219 268.000,285.213 267.276,284.144 266.390 C 283.075 265.505,281.345 264.393,280.300 263.919 C 279.255 263.445,278.400 262.908,278.400 262.725 C 278.400 262.542,277.598 261.989,276.618 261.496 C 272.839 259.597,269.313 257.172,267.214 255.030 C 266.011 253.804,264.821 252.800,264.569 252.800 C 263.991 252.800,257.637 247.005,256.711 245.634 C 255.910 244.449,253.662 241.827,251.456 239.506 C 250.606 238.613,249.705 237.413,249.453 236.841 C 248.782 235.318,246.748 232.400,246.357 232.400 C 246.172 232.400,245.748 231.873,245.415 231.228 C 245.081 230.584,244.402 229.926,243.904 229.767 C 242.360 229.273,233.585 229.359,232.343 229.881 M257.200 229.533 C 256.498 229.768,256.790 230.957,257.911 232.431 C 259.637 234.700,263.275 238.808,264.756 240.161 C 266.894 242.114,267.200 242.438,267.200 242.749 C 267.200 242.909,267.965 243.525,268.900 244.117 C 269.835 244.708,271.125 245.750,271.767 246.432 C 272.410 247.113,273.310 247.843,273.767 248.053 C 275.177 248.699,276.390 249.454,277.315 250.261 C 277.802 250.686,280.045 252.268,282.300 253.778 C 284.555 255.288,286.400 256.675,286.400 256.862 C 286.400 257.048,286.588 257.200,286.817 257.200 C 287.047 257.200,287.722 257.660,288.317 258.222 C 288.913 258.784,290.656 260.085,292.192 261.114 C 294.881 262.915,302.781 270.520,304.537 272.998 C 305.347 274.141,305.638 274.501,307.576 276.761 C 308.029 277.290,308.400 277.950,308.400 278.228 C 308.400 278.506,308.535 278.793,308.700 278.867 C 308.865 278.940,309.498 279.765,310.106 280.700 C 311.387 282.669,312.946 283.045,313.425 281.500 C 313.578 281.005,314.490 279.547,315.451 278.260 C 316.413 276.974,317.200 275.610,317.200 275.230 C 317.200 274.850,317.650 274.117,318.200 273.600 C 318.750 273.083,319.207 272.467,319.216 272.230 C 319.225 271.994,319.765 271.177,320.416 270.415 C 321.373 269.296,321.600 268.660,321.600 267.101 C 321.600 265.013,321.391 264.593,318.114 260.104 C 316.951 258.511,316.000 257.060,316.000 256.879 C 316.000 256.698,315.460 256.032,314.800 255.400 C 314.140 254.768,313.600 254.054,313.600 253.814 C 313.600 252.727,305.872 246.038,302.263 244.001 C 300.980 243.277,299.837 242.440,299.722 242.142 C 299.608 241.844,299.125 241.600,298.650 241.600 C 297.796 241.600,294.978 239.957,294.197 239.004 C 293.975 238.733,292.895 238.049,291.797 237.484 C 290.698 236.919,288.450 235.167,286.800 233.591 C 282.257 229.250,283.243 229.486,269.504 229.440 C 262.956 229.418,257.419 229.460,257.200 229.533 M166.739 255.288 C 164.519 256.874,161.356 259.522,160.456 260.549 C 160.095 260.961,159.555 261.501,159.255 261.749 C 158.955 261.997,158.145 262.803,157.455 263.540 C 156.765 264.277,155.181 265.966,153.935 267.293 C 152.689 268.620,151.339 270.351,150.935 271.141 C 150.531 271.930,149.480 273.511,148.600 274.654 C 147.720 275.797,146.471 277.602,145.825 278.666 C 145.179 279.730,144.227 281.140,143.709 281.800 C 143.192 282.460,141.939 284.260,140.926 285.800 C 139.913 287.340,138.954 288.690,138.795 288.800 C 138.635 288.910,138.051 289.900,137.496 291.000 C 136.941 292.100,135.702 293.730,134.743 294.622 C 133.785 295.514,132.170 297.134,131.155 298.222 C 128.313 301.269,123.654 305.600,123.219 305.600 C 123.004 305.600,122.213 306.140,121.461 306.800 C 120.709 307.460,119.848 308.006,119.547 308.013 C 117.144 308.071,115.194 312.770,117.301 313.427 C 117.795 313.582,118.630 314.134,119.155 314.654 C 119.680 315.174,120.330 315.600,120.600 315.600 C 120.871 315.600,121.701 316.133,122.446 316.784 C 123.191 317.435,124.729 318.439,125.865 319.014 C 127.001 319.589,128.244 320.407,128.627 320.830 C 130.736 323.160,136.368 320.232,144.200 312.733 C 145.740 311.259,147.270 309.803,147.600 309.497 C 148.816 308.372,150.400 306.395,150.400 306.003 C 150.400 305.782,150.586 305.600,150.813 305.600 C 151.039 305.600,151.339 305.285,151.479 304.900 C 151.619 304.515,152.243 303.544,152.866 302.742 C 153.490 301.941,154.000 301.164,154.000 301.016 C 154.000 300.868,154.405 300.174,154.901 299.473 C 156.182 297.664,156.708 296.777,157.359 295.335 C 157.673 294.639,158.261 293.728,158.665 293.309 C 159.069 292.891,159.743 291.885,160.163 291.074 C 160.583 290.263,161.056 289.600,161.214 289.600 C 161.373 289.600,161.727 289.060,162.000 288.400 C 162.273 287.740,162.618 287.200,162.766 287.200 C 162.914 287.200,163.689 286.345,164.488 285.300 C 165.288 284.255,166.510 282.770,167.205 282.000 C 169.592 279.357,169.564 279.538,169.619 266.351 C 169.677 252.662,169.792 253.106,166.739 255.288 M231.200 274.414 C 231.200 289.793,230.880 288.621,236.545 293.965 C 237.615 294.974,239.432 296.700,240.583 297.800 C 243.828 300.901,246.331 302.957,247.296 303.314 C 247.780 303.493,248.754 304.081,249.461 304.620 C 250.168 305.159,250.877 305.600,251.036 305.600 C 251.194 305.600,251.881 306.015,252.562 306.522 C 253.243 307.029,254.635 307.925,255.656 308.513 C 258.327 310.051,268.000 319.120,268.000 320.086 C 268.000 320.259,268.255 320.400,268.567 320.400 C 268.878 320.400,269.204 320.613,269.291 320.873 C 269.393 321.178,270.262 320.860,271.749 319.973 C 275.594 317.678,276.527 317.068,278.892 315.300 C 280.143 314.365,281.313 313.600,281.494 313.600 C 283.548 313.600,285.070 309.410,283.455 308.200 C 283.162 307.980,282.563 307.101,282.125 306.248 C 280.828 303.719,272.719 294.400,271.815 294.400 C 271.563 294.400,270.756 293.780,270.021 293.022 C 269.286 292.264,267.901 291.148,266.943 290.542 C 265.984 289.936,265.200 289.296,265.200 289.120 C 265.200 288.944,264.804 288.800,264.321 288.800 C 263.837 288.800,262.234 287.990,260.758 287.000 C 259.283 286.010,257.924 285.197,257.738 285.193 C 257.325 285.184,254.194 283.126,252.727 281.898 C 252.137 281.404,250.571 280.100,249.246 279.000 C 245.865 276.191,236.838 267.197,235.400 265.204 C 231.097 259.242,231.200 259.017,231.200 274.414 M57.098 377.436 C 56.968 377.565,56.083 377.836,55.131 378.038 C 43.968 380.407,35.683 393.158,35.663 408.000 C 35.658 412.066,36.562 417.797,37.588 420.200 C 39.195 423.961,40.807 426.951,42.243 428.836 C 43.794 430.869,44.752 431.822,47.639 434.200 C 48.947 435.278,51.727 436.593,54.400 437.400 C 55.610 437.765,57.013 438.230,57.519 438.432 C 60.983 439.819,70.193 438.636,75.388 436.138 C 78.712 434.539,83.134 430.497,83.778 428.469 C 83.930 427.991,84.181 427.600,84.336 427.600 C 85.198 427.600,88.400 418.670,88.400 416.265 C 88.400 415.244,88.312 415.200,86.249 415.200 C 83.702 415.200,83.383 415.505,83.007 418.300 C 82.852 419.455,82.562 420.400,82.362 420.400 C 82.163 420.400,82.000 420.754,82.000 421.188 C 82.000 421.882,81.614 422.716,79.745 426.058 C 74.657 435.160,59.421 437.533,50.586 430.600 C 47.658 428.302,44.778 424.829,43.786 422.400 C 43.652 422.070,43.285 421.209,42.971 420.486 C 42.657 419.764,42.400 418.859,42.400 418.475 C 42.400 418.092,42.156 417.423,41.857 416.989 C 41.354 416.257,40.708 411.246,40.699 408.000 C 40.682 401.657,42.322 395.374,45.121 391.055 C 47.317 387.667,51.758 383.600,53.261 383.600 C 53.523 383.600,54.021 383.364,54.369 383.076 C 55.774 381.910,59.540 381.164,64.002 381.168 C 68.525 381.172,68.944 381.271,73.197 383.330 C 76.737 385.044,82.000 391.417,82.000 393.990 C 82.000 394.845,82.765 395.200,84.609 395.200 C 85.348 395.200,86.081 395.407,86.237 395.661 C 87.433 397.596,87.534 394.007,86.374 390.800 C 84.791 386.424,77.655 379.200,74.915 379.200 C 74.632 379.200,74.400 379.020,74.400 378.800 C 74.400 378.580,73.995 378.399,73.500 378.398 C 73.005 378.396,72.084 378.126,71.454 377.798 C 70.301 377.196,57.656 376.877,57.098 377.436 M332.000 377.790 C 331.450 378.110,330.664 378.378,330.254 378.386 C 329.164 378.407,324.259 381.782,323.116 383.298 C 319.909 387.552,318.652 395.170,320.491 399.204 C 321.303 400.986,324.288 404.400,325.034 404.400 C 325.345 404.400,325.600 404.541,325.600 404.712 C 325.600 405.179,331.613 407.562,332.854 407.587 C 333.214 407.594,334.384 407.851,335.454 408.159 C 338.095 408.917,340.679 409.582,342.600 410.000 C 354.298 412.543,358.800 415.948,358.800 422.251 C 358.800 426.913,356.223 430.462,351.258 432.640 C 350.016 433.184,348.689 433.802,348.310 434.012 C 347.198 434.628,340.015 434.936,337.800 434.463 C 332.552 433.341,331.385 433.052,331.200 432.827 C 331.090 432.693,330.527 432.376,329.949 432.123 C 326.223 430.489,323.325 425.956,322.836 421.000 L 322.600 418.600 320.065 418.480 L 317.530 418.360 317.719 420.880 C 318.236 427.790,321.363 432.995,326.600 435.666 C 336.638 440.787,353.078 439.539,359.524 433.165 C 363.130 429.600,365.186 422.164,363.628 418.319 C 363.423 417.813,363.150 416.909,363.022 416.309 C 362.642 414.531,358.260 410.175,355.666 408.998 C 354.420 408.432,353.111 407.811,352.759 407.618 C 352.406 407.425,351.279 407.141,350.254 406.987 C 349.229 406.833,348.292 406.548,348.171 406.354 C 348.051 406.159,347.520 406.000,346.990 406.000 C 346.461 406.000,345.257 405.758,344.314 405.463 C 343.371 405.167,341.160 404.609,339.400 404.223 C 337.640 403.836,335.474 403.268,334.587 402.960 C 333.699 402.652,332.679 402.400,332.319 402.400 C 330.908 402.400,327.965 400.453,326.166 398.330 C 323.201 394.830,324.777 386.950,329.024 384.040 C 334.390 380.363,343.824 380.031,349.725 383.311 C 351.085 384.067,354.400 387.310,354.400 387.885 C 354.400 388.168,354.555 388.400,354.744 388.400 C 355.205 388.400,356.800 392.618,356.800 393.836 C 356.800 394.756,356.919 394.800,359.400 394.800 C 362.362 394.800,362.596 394.352,361.388 391.000 C 361.071 390.120,360.809 389.081,360.806 388.692 C 360.790 386.759,356.121 381.560,353.000 380.000 C 351.900 379.450,350.910 378.900,350.800 378.779 C 349.619 377.470,333.966 376.648,332.000 377.790 M115.000 379.300 C 114.637 380.015,114.068 381.410,113.734 382.400 C 113.176 384.054,112.017 386.790,111.152 388.495 C 110.959 388.877,110.800 389.389,110.800 389.634 C 110.800 389.879,110.517 390.736,110.170 391.540 C 109.824 392.343,109.268 393.630,108.936 394.400 C 108.603 395.170,108.076 396.310,107.765 396.932 C 107.454 397.555,107.200 398.337,107.200 398.671 C 107.200 399.004,106.952 399.754,106.650 400.338 C 105.657 402.254,104.497 404.972,103.985 406.584 C 103.709 407.456,103.073 408.986,102.572 409.984 C 102.072 410.983,101.533 412.340,101.376 413.000 C 101.219 413.660,100.964 414.380,100.810 414.600 C 100.657 414.820,100.121 416.080,99.619 417.400 C 99.118 418.720,98.391 420.520,98.004 421.400 C 97.616 422.280,96.897 423.990,96.406 425.200 C 95.436 427.589,94.480 429.798,93.941 430.895 C 93.754 431.277,93.600 431.781,93.600 432.017 C 93.600 432.252,93.261 433.199,92.848 434.122 C 91.251 437.684,91.221 437.600,94.093 437.600 C 96.709 437.600,97.600 437.181,97.600 435.952 C 97.600 435.574,97.853 434.755,98.163 434.132 C 98.820 432.812,99.200 431.873,100.407 428.600 C 100.893 427.280,101.525 425.660,101.810 425.000 C 102.096 424.340,102.637 422.852,103.013 421.694 C 103.389 420.536,103.891 419.467,104.129 419.320 C 104.776 418.921,131.611 419.048,131.991 419.452 C 132.171 419.643,132.893 421.240,133.596 423.000 C 134.299 424.760,135.108 426.740,135.395 427.400 C 136.001 428.796,136.363 429.718,137.592 433.000 C 139.475 438.025,139.058 437.600,142.098 437.600 C 143.584 437.600,144.800 437.512,144.800 437.404 C 144.800 437.295,144.241 435.900,143.559 434.304 C 142.876 432.707,142.047 430.680,141.718 429.800 C 141.388 428.920,140.958 427.890,140.762 427.510 C 140.566 427.131,140.031 425.691,139.572 424.310 C 138.816 422.033,138.082 420.221,137.141 418.305 C 136.954 417.923,136.800 417.411,136.800 417.166 C 136.800 416.747,136.542 416.099,134.820 412.200 C 134.432 411.320,133.889 409.970,133.614 409.200 C 133.339 408.430,132.880 407.260,132.594 406.600 C 132.308 405.940,131.766 404.590,131.389 403.600 C 131.012 402.610,130.562 401.440,130.387 401.000 C 130.213 400.560,129.667 399.120,129.175 397.800 C 128.683 396.480,128.053 394.860,127.775 394.200 C 127.497 393.540,126.963 392.052,126.587 390.894 C 126.211 389.736,125.746 388.690,125.552 388.570 C 125.358 388.451,125.200 388.018,125.200 387.609 C 125.200 387.200,124.952 386.355,124.649 385.732 C 124.346 385.110,123.833 383.970,123.510 383.200 C 123.187 382.430,122.537 380.945,122.066 379.900 L 121.210 378.000 118.434 378.000 C 115.705 378.000,115.648 378.022,115.000 379.300 M151.400 378.214 C 151.137 378.336,151.036 388.561,151.105 408.019 L 151.210 437.638 153.695 437.519 L 156.181 437.400 156.276 424.434 C 156.328 417.303,156.535 411.305,156.736 411.104 C 157.654 410.186,182.480 410.942,184.297 411.943 C 188.775 414.410,189.921 417.535,190.842 429.784 C 191.409 437.324,191.557 437.600,195.046 437.600 C 197.858 437.600,197.835 437.617,197.045 436.080 C 196.167 434.372,195.200 427.820,195.200 423.578 C 195.200 421.034,194.993 419.203,194.600 418.262 C 194.270 417.472,194.000 416.374,194.000 415.822 C 194.000 414.391,190.239 410.718,188.125 410.085 C 185.769 409.379,185.198 408.550,186.659 407.958 C 191.756 405.892,193.658 403.957,195.657 398.800 C 198.594 391.224,192.686 379.260,185.980 379.205 C 185.639 379.202,185.135 378.975,184.860 378.700 C 184.370 378.210,152.407 377.745,151.400 378.214 M208.285 378.249 C 208.128 378.405,208.000 391.832,208.000 408.087 L 208.000 437.640 210.300 437.520 L 212.600 437.400 212.600 407.800 L 212.600 378.200 210.585 378.082 C 209.476 378.017,208.441 378.092,208.285 378.249 M219.864 378.297 C 219.760 378.464,219.772 379.453,219.889 380.494 L 220.103 382.387 230.351 382.493 L 240.600 382.600 240.672 410.000 L 240.743 437.400 243.188 437.400 L 245.633 437.400 245.609 410.587 C 245.589 389.508,245.693 383.628,246.092 383.091 C 246.544 382.482,247.705 382.395,256.600 382.303 L 266.600 382.200 266.600 380.200 L 266.600 378.200 243.326 378.097 C 230.525 378.040,219.967 378.130,219.864 378.297 M284.900 378.265 C 284.625 378.376,284.400 378.732,284.400 379.055 C 284.400 379.569,284.057 380.452,282.403 384.200 C 282.209 384.640,281.927 385.450,281.777 386.000 C 281.509 386.980,280.084 390.291,278.965 392.532 C 278.654 393.155,278.400 393.906,278.400 394.200 C 278.400 394.494,278.144 395.245,277.832 395.868 C 277.519 396.490,276.958 397.810,276.584 398.800 C 275.182 402.512,274.229 404.803,273.365 406.532 C 273.054 407.155,272.800 407.937,272.800 408.271 C 272.800 408.604,272.547 409.354,272.237 409.938 C 271.166 411.959,267.993 419.803,267.996 420.420 C 267.998 420.761,267.837 421.211,267.637 421.420 C 267.437 421.629,266.353 424.140,265.227 427.000 C 263.063 432.498,262.891 432.922,261.855 435.314 C 260.899 437.523,260.962 437.600,263.723 437.600 L 266.246 437.600 266.952 435.900 C 267.340 434.965,267.937 433.480,268.279 432.600 C 268.621 431.720,269.129 430.460,269.408 429.800 C 270.495 427.230,270.771 426.520,271.584 424.200 C 272.755 420.859,273.677 419.206,274.391 419.166 C 288.487 418.381,302.395 419.273,302.402 420.962 C 302.404 421.498,304.185 425.918,304.543 426.276 C 304.684 426.417,304.800 426.849,304.800 427.234 C 304.800 427.620,305.101 428.535,305.469 429.268 C 305.838 430.000,306.378 431.078,306.669 431.662 C 306.961 432.246,307.200 433.013,307.200 433.367 C 307.200 433.721,307.380 434.323,307.600 434.705 C 307.820 435.087,308.175 435.895,308.390 436.500 C 308.729 437.455,314.400 438.375,314.400 437.475 C 314.400 437.406,313.950 436.417,313.400 435.277 C 312.850 434.137,312.400 432.854,312.400 432.426 C 312.400 431.997,312.243 431.550,312.052 431.432 C 311.861 431.314,311.300 430.088,310.806 428.708 C 310.313 427.329,309.647 425.570,309.327 424.800 C 308.456 422.703,308.163 421.973,307.398 420.000 C 306.523 417.745,305.663 415.731,304.951 414.268 C 304.648 413.645,304.400 412.826,304.400 412.448 C 304.400 412.069,304.248 411.589,304.062 411.380 C 303.876 411.171,303.316 409.830,302.817 408.400 C 302.317 406.970,301.674 405.260,301.387 404.600 C 301.100 403.940,300.564 402.590,300.196 401.600 C 299.200 398.924,298.786 397.921,298.163 396.668 C 297.853 396.045,297.600 395.263,297.600 394.929 C 297.600 394.596,297.349 393.846,297.043 393.262 C 296.737 392.678,296.174 391.390,295.793 390.400 C 295.059 388.497,294.109 386.261,293.541 385.105 C 293.354 384.723,293.194 384.183,293.186 383.905 C 293.179 383.627,292.825 382.680,292.400 381.800 C 291.975 380.920,291.621 379.814,291.614 379.343 C 291.594 378.128,287.048 377.398,284.900 378.265 M183.638 383.000 C 184.277 383.330,185.375 383.901,186.079 384.269 C 194.731 388.797,191.374 406.000,181.837 406.000 C 181.293 406.000,180.736 406.180,180.600 406.400 C 180.103 407.204,156.888 406.915,156.462 406.100 C 156.053 405.316,156.165 383.503,156.582 382.829 C 157.038 382.091,182.187 382.251,183.638 383.000 M119.635 386.001 C 119.985 386.991,120.376 388.070,120.504 388.400 C 120.633 388.730,121.113 390.130,121.572 391.510 C 122.418 394.056,122.544 394.361,123.732 396.732 C 124.100 397.465,124.400 398.400,124.400 398.809 C 124.400 399.218,124.566 399.655,124.769 399.781 C 124.972 399.906,125.259 400.559,125.407 401.232 C 125.555 401.904,125.927 402.937,126.235 403.527 C 126.543 404.117,126.796 404.881,126.798 405.224 C 126.799 405.566,127.064 406.196,127.387 406.624 C 127.710 407.051,127.980 407.794,127.987 408.276 C 127.994 408.758,128.180 409.264,128.400 409.400 C 128.620 409.536,128.800 409.924,128.800 410.263 C 128.800 410.602,129.090 411.490,129.444 412.236 C 130.693 414.869,130.900 414.824,118.110 414.706 L 106.600 414.600 106.647 413.081 C 106.689 411.745,106.977 410.923,108.459 407.905 C 108.646 407.523,108.800 407.019,108.800 406.783 C 108.800 406.368,110.087 403.224,110.763 401.987 C 110.947 401.650,111.225 400.795,111.381 400.087 C 111.536 399.379,111.829 398.800,112.032 398.800 C 112.234 398.800,112.400 398.333,112.400 397.762 C 112.400 397.191,112.651 396.246,112.957 395.662 C 113.263 395.078,113.817 393.790,114.189 392.800 C 114.560 391.810,115.119 390.490,115.432 389.868 C 115.744 389.245,116.000 388.477,116.000 388.162 C 116.000 387.847,116.180 387.277,116.400 386.895 C 116.620 386.513,116.980 385.692,117.201 385.071 C 117.789 383.416,118.867 383.828,119.635 386.001 M288.654 385.073 C 288.802 385.664,289.165 386.609,289.459 387.173 C 289.754 387.738,289.996 388.479,289.998 388.820 C 289.999 389.161,290.152 389.611,290.338 389.820 C 290.524 390.029,291.081 391.370,291.577 392.800 C 292.526 395.539,292.950 396.639,293.811 398.600 C 294.101 399.260,294.738 400.970,295.227 402.400 C 296.487 406.087,296.961 407.329,297.323 407.894 C 297.497 408.165,297.905 409.282,298.230 410.376 C 298.555 411.470,298.989 412.470,299.195 412.597 C 299.422 412.737,299.391 413.221,299.118 413.820 L 298.666 414.812 287.476 414.706 C 274.625 414.584,274.756 414.622,276.285 411.524 C 276.753 410.576,277.442 408.852,277.816 407.694 C 278.190 406.536,278.654 405.490,278.848 405.370 C 279.042 405.251,279.200 404.818,279.200 404.409 C 279.200 404.000,279.459 403.155,279.776 402.532 C 280.092 401.910,280.641 400.680,280.995 399.800 C 281.349 398.920,281.810 397.887,282.019 397.505 C 282.229 397.123,282.401 396.583,282.402 396.305 C 282.404 396.027,282.657 395.317,282.965 394.727 C 283.273 394.137,283.654 393.063,283.813 392.340 C 284.115 390.966,284.240 390.647,285.332 388.468 C 285.700 387.735,286.000 386.904,286.000 386.622 C 286.000 384.826,288.261 383.507,288.654 385.073 " stroke="none" fill="#cc0c1b" fill-rule="evenodd"></path></g></svg>