<svg id="svg" version="1.1" xmlns="http://www.w3.org/2000/svg" xmlns:xlink="http://www.w3.org/1999/xlink" width="400" height="106.66666666666667" viewBox="0, 0, 400,106.66666666666667"><g id="svgg"><path id="path0" d="M37.542 0.114 C 36.785 0.150,36.167 0.252,36.167 0.340 C 36.167 0.428,35.717 0.500,35.167 0.500 C 34.611 0.500,34.167 0.574,34.167 0.667 C 34.167 0.758,33.867 0.833,33.500 0.833 C 33.133 0.833,32.833 0.908,32.833 1.000 C 32.833 1.092,32.538 1.167,32.177 1.167 C 31.815 1.167,31.473 1.242,31.417 1.333 C 31.360 1.425,31.056 1.500,30.740 1.500 C 30.425 1.500,30.167 1.575,30.167 1.667 C 30.167 1.758,29.942 1.833,29.667 1.833 C 29.392 1.833,29.167 1.908,29.167 2.000 C 29.167 2.092,28.942 2.167,28.667 2.167 C 28.392 2.167,28.167 2.242,28.167 2.333 C 28.167 2.425,27.942 2.500,27.667 2.500 C 27.392 2.500,27.167 2.575,27.167 2.667 C 27.167 2.758,27.017 2.833,26.833 2.833 C 26.650 2.833,26.500 2.908,26.500 3.000 C 26.500 3.092,26.317 3.167,26.093 3.167 C 25.869 3.167,25.640 3.242,25.583 3.333 C 25.527 3.425,25.335 3.500,25.157 3.500 C 24.979 3.500,24.833 3.575,24.833 3.667 C 24.833 3.758,24.683 3.833,24.500 3.833 C 24.317 3.833,24.167 3.908,24.167 4.000 C 24.167 4.092,24.017 4.167,23.833 4.167 C 23.650 4.167,23.500 4.242,23.500 4.333 C 23.500 4.425,23.350 4.500,23.167 4.500 C 22.983 4.500,22.833 4.575,22.833 4.667 C 22.833 4.758,22.718 4.833,22.576 4.833 C 22.435 4.833,22.158 4.983,21.962 5.167 C 21.765 5.350,21.505 5.500,21.385 5.500 C 21.265 5.500,21.167 5.575,21.167 5.667 C 21.167 5.758,21.033 5.833,20.870 5.833 C 20.707 5.833,20.465 5.983,20.333 6.167 C 20.201 6.350,19.976 6.500,19.833 6.500 C 19.690 6.500,19.465 6.650,19.333 6.833 C 19.201 7.017,19.013 7.167,18.915 7.167 C 18.817 7.167,18.405 7.467,18.000 7.833 C 17.595 8.200,17.203 8.500,17.130 8.500 C 16.957 8.500,11.833 13.623,11.833 13.797 C 11.833 13.870,11.533 14.262,11.167 14.667 C 10.800 15.072,10.500 15.484,10.500 15.582 C 10.500 15.680,10.350 15.868,10.167 16.000 C 9.983 16.132,9.833 16.357,9.833 16.500 C 9.833 16.643,9.683 16.868,9.500 17.000 C 9.317 17.132,9.167 17.357,9.167 17.500 C 9.167 17.643,9.017 17.868,8.833 18.000 C 8.650 18.132,8.500 18.339,8.500 18.460 C 8.500 18.582,8.350 18.842,8.167 19.038 C 7.983 19.235,7.833 19.495,7.833 19.615 C 7.833 19.735,7.758 19.833,7.667 19.833 C 7.575 19.833,7.500 19.983,7.500 20.167 C 7.500 20.350,7.425 20.500,7.333 20.500 C 7.242 20.500,7.167 20.650,7.167 20.833 C 7.167 21.017,7.092 21.167,7.000 21.167 C 6.908 21.167,6.833 21.317,6.833 21.500 C 6.833 21.683,6.758 21.833,6.667 21.833 C 6.575 21.833,6.500 21.983,6.500 22.167 C 6.500 22.350,6.425 22.500,6.333 22.500 C 6.242 22.500,6.167 22.650,6.167 22.833 C 6.167 23.017,6.092 23.167,6.000 23.167 C 5.908 23.167,5.833 23.317,5.833 23.500 C 5.833 23.683,5.758 23.833,5.667 23.833 C 5.575 23.833,5.500 23.983,5.500 24.167 C 5.500 24.350,5.425 24.500,5.333 24.500 C 5.242 24.500,5.167 24.650,5.167 24.833 C 5.167 25.017,5.092 25.167,5.000 25.167 C 4.908 25.167,4.833 25.350,4.833 25.573 C 4.833 25.797,4.758 26.027,4.667 26.083 C 4.575 26.140,4.500 26.332,4.500 26.510 C 4.500 26.688,4.425 26.833,4.333 26.833 C 4.242 26.833,4.167 27.016,4.167 27.240 C 4.167 27.464,4.092 27.693,4.000 27.750 C 3.908 27.807,3.833 27.999,3.833 28.177 C 3.833 28.354,3.758 28.500,3.667 28.500 C 3.575 28.500,3.500 28.725,3.500 29.000 C 3.500 29.275,3.425 29.500,3.333 29.500 C 3.242 29.500,3.167 29.725,3.167 30.000 C 3.167 30.275,3.092 30.500,3.000 30.500 C 2.908 30.500,2.833 30.725,2.833 31.000 C 2.833 31.275,2.758 31.500,2.667 31.500 C 2.575 31.500,2.500 31.725,2.500 32.000 C 2.500 32.275,2.425 32.500,2.333 32.500 C 2.242 32.500,2.167 32.725,2.167 33.000 C 2.167 33.275,2.092 33.500,2.000 33.500 C 1.908 33.500,1.833 33.800,1.833 34.167 C 1.833 34.533,1.758 34.833,1.667 34.833 C 1.575 34.833,1.500 35.133,1.500 35.500 C 1.500 35.867,1.425 36.167,1.333 36.167 C 1.242 36.167,1.167 36.542,1.167 37.000 C 1.167 37.458,1.092 37.833,1.000 37.833 C 0.907 37.833,0.833 38.278,0.833 38.833 C 0.833 39.389,0.759 39.833,0.667 39.833 C 0.572 39.833,0.500 40.329,0.500 40.986 C 0.500 41.760,0.432 42.162,0.292 42.208 C -0.013 42.310,-0.013 64.023,0.292 64.125 C 0.431 64.172,0.500 64.571,0.500 65.337 C 0.500 65.966,0.575 66.527,0.667 66.583 C 0.758 66.640,0.833 67.094,0.833 67.593 C 0.833 68.092,0.908 68.500,1.000 68.500 C 1.092 68.500,1.167 68.908,1.167 69.407 C 1.167 69.906,1.242 70.360,1.333 70.417 C 1.425 70.473,1.500 70.815,1.500 71.177 C 1.500 71.538,1.575 71.833,1.667 71.833 C 1.758 71.833,1.833 72.133,1.833 72.500 C 1.833 72.867,1.908 73.167,2.000 73.167 C 2.092 73.167,2.167 73.392,2.167 73.667 C 2.167 73.942,2.242 74.167,2.333 74.167 C 2.425 74.167,2.500 74.425,2.500 74.740 C 2.500 75.056,2.575 75.360,2.667 75.417 C 2.758 75.473,2.833 75.698,2.833 75.917 C 2.833 76.135,2.908 76.360,3.000 76.417 C 3.092 76.473,3.167 76.698,3.167 76.917 C 3.167 77.135,3.242 77.360,3.333 77.417 C 3.425 77.473,3.500 77.665,3.500 77.843 C 3.500 78.021,3.575 78.167,3.667 78.167 C 3.758 78.167,3.833 78.392,3.833 78.667 C 3.833 78.942,3.908 79.167,4.000 79.167 C 4.092 79.167,4.167 79.312,4.167 79.490 C 4.167 79.668,4.242 79.860,4.333 79.917 C 4.425 79.973,4.500 80.203,4.500 80.427 C 4.500 80.650,4.575 80.833,4.667 80.833 C 4.758 80.833,4.833 80.983,4.833 81.167 C 4.833 81.350,4.908 81.500,5.000 81.500 C 5.092 81.500,5.167 81.650,5.167 81.833 C 5.167 82.017,5.242 82.167,5.333 82.167 C 5.425 82.167,5.500 82.317,5.500 82.500 C 5.500 82.683,5.575 82.833,5.667 82.833 C 5.758 82.833,5.833 82.983,5.833 83.167 C 5.833 83.350,5.908 83.500,6.000 83.500 C 6.092 83.500,6.167 83.650,6.167 83.833 C 6.167 84.017,6.242 84.167,6.333 84.167 C 6.425 84.167,6.500 84.317,6.500 84.500 C 6.500 84.683,6.575 84.833,6.667 84.833 C 6.758 84.833,6.833 84.983,6.833 85.167 C 6.833 85.350,6.908 85.500,7.000 85.500 C 7.092 85.500,7.167 85.650,7.167 85.833 C 7.167 86.017,7.242 86.167,7.333 86.167 C 7.425 86.167,7.500 86.265,7.500 86.385 C 7.500 86.505,7.650 86.765,7.833 86.962 C 8.017 87.158,8.167 87.418,8.167 87.540 C 8.167 87.661,8.317 87.868,8.500 88.000 C 8.683 88.132,8.833 88.374,8.833 88.537 C 8.833 88.700,8.896 88.833,8.972 88.833 C 9.048 88.833,9.216 89.040,9.346 89.292 C 9.475 89.544,9.713 89.871,9.874 90.020 C 10.035 90.168,10.167 90.358,10.167 90.443 C 10.167 90.527,10.467 90.928,10.833 91.333 C 11.200 91.738,11.500 92.128,11.500 92.200 C 11.500 92.561,17.494 98.500,17.859 98.500 C 17.938 98.500,18.238 98.725,18.526 99.000 C 18.814 99.275,19.134 99.500,19.238 99.500 C 19.342 99.500,19.535 99.650,19.667 99.833 C 19.799 100.017,20.024 100.167,20.167 100.167 C 20.310 100.167,20.535 100.317,20.667 100.500 C 20.799 100.683,21.006 100.833,21.127 100.833 C 21.248 100.833,21.508 100.983,21.705 101.167 C 21.902 101.350,22.161 101.500,22.281 101.500 C 22.402 101.500,22.500 101.575,22.500 101.667 C 22.500 101.758,22.650 101.833,22.833 101.833 C 23.017 101.833,23.167 101.908,23.167 102.000 C 23.167 102.092,23.317 102.167,23.500 102.167 C 23.683 102.167,23.833 102.242,23.833 102.333 C 23.833 102.425,23.983 102.500,24.167 102.500 C 24.350 102.500,24.500 102.575,24.500 102.667 C 24.500 102.758,24.650 102.833,24.833 102.833 C 25.017 102.833,25.167 102.908,25.167 103.000 C 25.167 103.092,25.317 103.167,25.500 103.167 C 25.683 103.167,25.833 103.242,25.833 103.333 C 25.833 103.425,25.983 103.500,26.167 103.500 C 26.350 103.500,26.500 103.575,26.500 103.667 C 26.500 103.758,26.725 103.833,27.000 103.833 C 27.275 103.833,27.500 103.908,27.500 104.000 C 27.500 104.092,27.650 104.167,27.833 104.167 C 28.017 104.167,28.167 104.242,28.167 104.333 C 28.167 104.425,28.392 104.500,28.667 104.500 C 28.942 104.500,29.167 104.575,29.167 104.667 C 29.167 104.758,29.392 104.833,29.667 104.833 C 29.942 104.833,30.167 104.908,30.167 105.000 C 30.167 105.092,30.467 105.167,30.833 105.167 C 31.200 105.167,31.500 105.242,31.500 105.333 C 31.500 105.425,31.758 105.500,32.073 105.500 C 32.389 105.500,32.693 105.575,32.750 105.667 C 32.807 105.758,33.149 105.833,33.510 105.833 C 33.871 105.833,34.167 105.908,34.167 106.000 C 34.167 106.092,34.606 106.167,35.153 106.167 C 35.794 106.167,36.163 106.240,36.208 106.375 C 36.262 106.537,37.770 106.583,43.000 106.583 C 48.230 106.583,49.738 106.537,49.792 106.375 C 49.838 106.237,50.221 106.167,50.921 106.167 C 51.504 106.167,52.027 106.092,52.083 106.000 C 52.140 105.908,52.557 105.833,53.010 105.833 C 53.463 105.833,53.833 105.758,53.833 105.667 C 53.833 105.575,54.129 105.500,54.490 105.500 C 54.851 105.500,55.193 105.425,55.250 105.333 C 55.307 105.242,55.607 105.167,55.917 105.167 C 56.227 105.167,56.527 105.092,56.583 105.000 C 56.640 104.908,56.944 104.833,57.260 104.833 C 57.575 104.833,57.833 104.758,57.833 104.667 C 57.833 104.575,58.054 104.500,58.323 104.500 C 58.593 104.500,58.860 104.425,58.917 104.333 C 58.973 104.242,59.236 104.167,59.500 104.167 C 59.764 104.167,60.027 104.092,60.083 104.000 C 60.140 103.908,60.365 103.833,60.583 103.833 C 60.802 103.833,61.027 103.758,61.083 103.667 C 61.140 103.575,61.332 103.500,61.510 103.500 C 61.688 103.500,61.833 103.425,61.833 103.333 C 61.833 103.242,62.058 103.167,62.333 103.167 C 62.608 103.167,62.833 103.092,62.833 103.000 C 62.833 102.908,62.979 102.833,63.157 102.833 C 63.335 102.833,63.527 102.758,63.583 102.667 C 63.640 102.575,63.869 102.500,64.093 102.500 C 64.317 102.500,64.500 102.425,64.500 102.333 C 64.500 102.242,64.650 102.167,64.833 102.167 C 65.017 102.167,65.167 102.092,65.167 102.000 C 65.167 101.908,65.317 101.833,65.500 101.833 C 65.683 101.833,65.833 101.758,65.833 101.667 C 65.833 101.575,65.983 101.500,66.167 101.500 C 66.350 101.500,66.500 101.425,66.500 101.333 C 66.500 101.242,66.650 101.167,66.833 101.167 C 67.017 101.167,67.167 101.092,67.167 101.000 C 67.167 100.908,67.317 100.833,67.500 100.833 C 67.683 100.833,67.833 100.758,67.833 100.667 C 67.833 100.575,67.983 100.500,68.167 100.500 C 68.350 100.500,68.500 100.425,68.500 100.333 C 68.500 100.242,68.650 100.167,68.833 100.167 C 69.017 100.167,69.167 100.092,69.167 100.000 C 69.167 99.908,69.300 99.833,69.463 99.833 C 69.626 99.833,69.868 99.683,70.000 99.500 C 70.132 99.317,70.374 99.167,70.537 99.167 C 70.700 99.167,70.833 99.104,70.833 99.028 C 70.833 98.952,71.040 98.784,71.292 98.654 C 71.544 98.525,71.871 98.287,72.020 98.126 C 72.168 97.965,72.381 97.833,72.494 97.833 C 72.607 97.833,72.910 97.608,73.167 97.333 C 73.424 97.058,73.714 96.833,73.812 96.833 C 74.045 96.833,78.167 92.711,78.167 92.479 C 78.167 92.381,78.392 92.090,78.667 91.833 C 78.942 91.576,79.167 91.283,79.167 91.182 C 79.167 91.080,79.392 90.762,79.667 90.474 C 79.942 90.186,80.167 89.849,80.167 89.725 C 80.167 89.601,80.242 89.500,80.333 89.500 C 80.425 89.500,80.500 89.402,80.500 89.281 C 80.500 89.161,80.650 88.902,80.833 88.705 C 81.017 88.508,81.167 88.232,81.167 88.090 C 81.167 87.949,81.242 87.833,81.333 87.833 C 81.425 87.833,81.500 87.735,81.500 87.615 C 81.500 87.495,81.650 87.235,81.833 87.038 C 82.017 86.842,82.167 86.565,82.167 86.424 C 82.167 86.282,82.242 86.167,82.333 86.167 C 82.425 86.167,82.500 86.017,82.500 85.833 C 82.500 85.650,82.575 85.500,82.667 85.500 C 82.758 85.500,82.833 85.350,82.833 85.167 C 82.833 84.983,82.908 84.833,83.000 84.833 C 83.092 84.833,83.167 84.683,83.167 84.500 C 83.167 84.317,83.242 84.167,83.333 84.167 C 83.425 84.167,83.500 84.017,83.500 83.833 C 83.500 83.650,83.575 83.500,83.667 83.500 C 83.758 83.500,83.833 83.317,83.833 83.093 C 83.833 82.869,83.908 82.640,84.000 82.583 C 84.092 82.527,84.167 82.335,84.167 82.157 C 84.167 81.979,84.242 81.833,84.333 81.833 C 84.425 81.833,84.500 81.682,84.500 81.498 C 84.500 81.313,84.575 81.013,84.667 80.831 C 84.758 80.649,84.908 80.351,85.000 80.169 C 85.092 79.987,85.167 79.691,85.167 79.512 C 85.167 79.333,85.242 79.140,85.333 79.083 C 85.425 79.027,85.500 78.722,85.500 78.407 C 85.500 78.091,85.575 77.833,85.667 77.833 C 85.758 77.833,85.833 77.613,85.833 77.343 C 85.833 77.074,85.908 76.807,86.000 76.750 C 86.092 76.693,86.167 76.314,86.167 75.907 C 86.167 75.500,86.242 75.167,86.333 75.167 C 86.425 75.167,86.500 74.792,86.500 74.333 C 86.500 73.875,86.575 73.500,86.667 73.500 C 86.765 73.500,86.833 72.920,86.833 72.093 C 86.833 71.319,86.908 70.640,87.000 70.583 C 87.092 70.527,87.167 69.960,87.167 69.323 L 87.167 68.167 77.167 68.167 C 67.278 68.167,67.167 68.170,67.167 68.500 C 67.167 68.683,67.092 68.833,67.000 68.833 C 66.907 68.833,66.833 69.278,66.833 69.833 C 66.833 70.389,66.759 70.833,66.667 70.833 C 66.575 70.833,66.500 71.208,66.500 71.667 C 66.500 72.125,66.425 72.500,66.333 72.500 C 66.242 72.500,66.167 72.800,66.167 73.167 C 66.167 73.533,66.092 73.833,66.000 73.833 C 65.908 73.833,65.833 74.058,65.833 74.333 C 65.833 74.608,65.758 74.833,65.667 74.833 C 65.575 74.833,65.500 75.058,65.500 75.333 C 65.500 75.608,65.425 75.833,65.333 75.833 C 65.242 75.833,65.167 75.983,65.167 76.167 C 65.167 76.350,65.092 76.500,65.000 76.500 C 64.908 76.500,64.833 76.605,64.833 76.734 C 64.833 77.012,64.138 78.392,63.958 78.472 C 63.890 78.503,63.833 78.655,63.833 78.810 C 63.833 78.966,63.683 79.201,63.500 79.333 C 63.317 79.465,63.167 79.663,63.167 79.773 C 63.167 80.048,60.191 83.028,59.625 83.320 C 59.373 83.450,59.167 83.619,59.167 83.695 C 59.167 83.771,59.068 83.833,58.948 83.833 C 58.828 83.833,58.569 83.983,58.372 84.167 C 58.175 84.350,57.905 84.500,57.771 84.500 C 57.637 84.500,57.503 84.556,57.472 84.625 C 57.394 84.801,55.334 85.833,55.060 85.833 C 54.935 85.833,54.833 85.908,54.833 86.000 C 54.833 86.092,54.682 86.167,54.498 86.167 C 54.313 86.167,54.013 86.242,53.831 86.333 C 53.649 86.425,53.351 86.575,53.169 86.667 C 52.987 86.758,52.691 86.833,52.512 86.833 C 52.333 86.833,52.140 86.908,52.083 87.000 C 52.027 87.092,51.722 87.167,51.407 87.167 C 51.091 87.167,50.833 87.242,50.833 87.333 C 50.833 87.425,50.500 87.500,50.093 87.500 C 49.686 87.500,49.307 87.575,49.250 87.667 C 49.193 87.758,48.701 87.833,48.157 87.833 C 47.608 87.833,47.167 87.908,47.167 88.000 C 47.167 88.105,46.056 88.167,44.167 88.167 C 42.278 88.167,41.167 88.105,41.167 88.000 C 41.167 87.908,40.796 87.833,40.343 87.833 C 39.890 87.833,39.473 87.758,39.417 87.667 C 39.360 87.575,39.056 87.500,38.740 87.500 C 38.425 87.500,38.167 87.425,38.167 87.333 C 38.167 87.242,37.942 87.167,37.667 87.167 C 37.392 87.167,37.167 87.092,37.167 87.000 C 37.167 86.908,36.942 86.833,36.667 86.833 C 36.392 86.833,36.167 86.758,36.167 86.667 C 36.167 86.575,36.017 86.500,35.833 86.500 C 35.650 86.500,35.500 86.425,35.500 86.333 C 35.500 86.242,35.350 86.167,35.167 86.167 C 34.983 86.167,34.833 86.092,34.833 86.000 C 34.833 85.908,34.735 85.833,34.615 85.833 C 34.495 85.833,34.235 85.683,34.038 85.500 C 33.842 85.317,33.582 85.167,33.460 85.167 C 33.339 85.167,33.132 85.017,33.000 84.833 C 32.868 84.650,32.656 84.500,32.530 84.500 C 32.404 84.500,32.102 84.291,31.859 84.035 C 31.616 83.780,31.154 83.387,30.833 83.162 C 30.087 82.640,29.026 81.580,28.504 80.833 C 28.280 80.512,27.887 80.051,27.631 79.808 C 27.376 79.565,27.166 79.303,27.166 79.225 C 27.166 79.147,26.941 78.821,26.667 78.500 C 26.392 78.179,26.167 77.823,26.167 77.708 C 26.167 77.594,26.092 77.500,26.000 77.500 C 25.908 77.500,25.833 77.402,25.833 77.281 C 25.833 77.161,25.683 76.902,25.500 76.705 C 25.317 76.508,25.167 76.232,25.167 76.090 C 25.167 75.949,25.110 75.833,25.042 75.832 C 24.973 75.831,24.833 75.663,24.731 75.457 C 24.370 74.731,23.460 72.913,23.314 72.627 C 23.233 72.468,23.167 72.224,23.167 72.086 C 23.167 71.947,23.092 71.833,23.000 71.833 C 22.908 71.833,22.833 71.688,22.833 71.510 C 22.833 71.332,22.758 71.140,22.667 71.083 C 22.575 71.027,22.500 70.797,22.500 70.573 C 22.500 70.350,22.425 70.167,22.333 70.167 C 22.242 70.167,22.167 69.942,22.167 69.667 C 22.167 69.392,22.092 69.167,22.000 69.167 C 21.908 69.167,21.833 68.867,21.833 68.500 C 21.833 68.133,21.758 67.833,21.667 67.833 C 21.575 67.833,21.500 67.533,21.500 67.167 C 21.500 66.800,21.425 66.500,21.333 66.500 C 21.242 66.500,21.167 66.167,21.167 65.760 C 21.167 65.353,21.092 64.973,21.000 64.917 C 20.908 64.860,20.833 64.368,20.833 63.823 C 20.833 63.274,20.759 62.833,20.667 62.833 C 20.569 62.833,20.500 62.278,20.500 61.500 C 20.500 60.722,20.431 60.167,20.333 60.167 C 20.225 60.167,20.167 58.114,20.167 54.343 C 20.167 50.641,20.227 48.482,20.333 48.417 C 20.425 48.360,20.500 47.681,20.500 46.907 C 20.500 46.080,20.569 45.500,20.667 45.500 C 20.762 45.500,20.833 45.000,20.833 44.333 C 20.833 43.667,20.905 43.167,21.000 43.167 C 21.093 43.167,21.167 42.722,21.167 42.167 C 21.167 41.611,21.241 41.167,21.333 41.167 C 21.425 41.167,21.500 40.792,21.500 40.333 C 21.500 39.875,21.575 39.500,21.667 39.500 C 21.758 39.500,21.833 39.200,21.833 38.833 C 21.833 38.467,21.908 38.167,22.000 38.167 C 22.092 38.167,22.167 37.867,22.167 37.500 C 22.167 37.133,22.242 36.833,22.333 36.833 C 22.425 36.833,22.500 36.533,22.500 36.167 C 22.500 35.800,22.575 35.500,22.667 35.500 C 22.758 35.500,22.833 35.275,22.833 35.000 C 22.833 34.725,22.908 34.500,23.000 34.500 C 23.092 34.500,23.167 34.354,23.167 34.177 C 23.167 33.999,23.242 33.807,23.333 33.750 C 23.425 33.693,23.500 33.464,23.500 33.240 C 23.500 33.016,23.575 32.833,23.667 32.833 C 23.758 32.833,23.833 32.683,23.833 32.500 C 23.833 32.317,23.908 32.167,24.000 32.167 C 24.092 32.167,24.167 32.017,24.167 31.833 C 24.167 31.650,24.242 31.500,24.333 31.500 C 24.425 31.500,24.500 31.350,24.500 31.167 C 24.500 30.983,24.575 30.833,24.667 30.833 C 24.758 30.833,24.833 30.683,24.833 30.500 C 24.833 30.317,24.908 30.167,25.000 30.167 C 25.092 30.167,25.167 30.051,25.167 29.910 C 25.167 29.768,25.317 29.492,25.500 29.295 C 25.683 29.098,25.833 28.839,25.833 28.719 C 25.833 28.598,25.908 28.500,26.000 28.500 C 26.092 28.500,26.167 28.380,26.167 28.234 C 26.167 28.087,26.392 27.757,26.667 27.500 C 26.942 27.243,27.167 26.954,27.167 26.858 C 27.167 26.680,28.641 25.022,29.625 24.094 C 31.534 22.294,32.066 21.833,32.236 21.833 C 32.341 21.833,32.535 21.683,32.667 21.500 C 32.799 21.317,33.040 21.167,33.203 21.167 C 33.367 21.167,33.500 21.092,33.500 21.000 C 33.500 20.908,33.598 20.833,33.719 20.833 C 33.839 20.833,34.098 20.683,34.295 20.500 C 34.492 20.317,34.768 20.167,34.910 20.167 C 35.051 20.167,35.167 20.092,35.167 20.000 C 35.167 19.908,35.317 19.833,35.500 19.833 C 35.683 19.833,35.833 19.758,35.833 19.667 C 35.833 19.575,36.016 19.500,36.240 19.500 C 36.464 19.500,36.693 19.425,36.750 19.333 C 36.807 19.242,36.999 19.167,37.177 19.167 C 37.354 19.167,37.500 19.092,37.500 19.000 C 37.500 18.908,37.725 18.833,38.000 18.833 C 38.275 18.833,38.500 18.758,38.500 18.667 C 38.500 18.575,38.800 18.500,39.167 18.500 C 39.533 18.500,39.833 18.425,39.833 18.333 C 39.833 18.241,40.278 18.167,40.833 18.167 C 41.389 18.167,41.833 18.093,41.833 18.000 C 41.833 17.894,43.111 17.833,45.333 17.833 C 47.556 17.833,48.833 17.894,48.833 18.000 C 48.833 18.093,49.278 18.167,49.833 18.167 C 50.389 18.167,50.833 18.241,50.833 18.333 C 50.833 18.425,51.133 18.500,51.500 18.500 C 51.867 18.500,52.167 18.575,52.167 18.667 C 52.167 18.758,52.393 18.833,52.669 18.833 C 52.945 18.833,53.320 18.908,53.502 19.000 C 53.684 19.092,53.982 19.242,54.164 19.333 C 54.346 19.425,54.646 19.500,54.831 19.500 C 55.016 19.500,55.167 19.575,55.167 19.667 C 55.167 19.758,55.317 19.833,55.500 19.833 C 55.683 19.833,55.833 19.908,55.833 20.000 C 55.833 20.092,55.983 20.167,56.167 20.167 C 56.350 20.167,56.500 20.242,56.500 20.333 C 56.500 20.425,56.650 20.500,56.833 20.500 C 57.017 20.500,57.167 20.575,57.167 20.667 C 57.167 20.758,57.300 20.833,57.463 20.833 C 57.626 20.833,57.868 20.983,58.000 21.167 C 58.132 21.350,58.346 21.500,58.476 21.500 C 58.605 21.500,58.832 21.635,58.980 21.800 C 59.129 21.964,59.512 22.282,59.833 22.506 C 60.521 22.985,62.167 24.600,62.167 24.795 C 62.167 24.869,62.467 25.262,62.833 25.667 C 63.200 26.072,63.500 26.500,63.500 26.618 C 63.500 26.737,63.575 26.833,63.667 26.833 C 63.758 26.833,63.833 26.932,63.833 27.052 C 63.833 27.172,63.983 27.431,64.167 27.628 C 64.350 27.825,64.500 28.102,64.500 28.243 C 64.500 28.384,64.575 28.500,64.667 28.500 C 64.758 28.500,64.833 28.650,64.833 28.833 C 64.833 29.017,64.908 29.167,65.000 29.167 C 65.092 29.167,65.167 29.317,65.167 29.500 C 65.167 29.683,65.242 29.833,65.333 29.833 C 65.425 29.833,65.500 30.016,65.500 30.240 C 65.500 30.464,65.575 30.693,65.667 30.750 C 65.758 30.807,65.833 30.999,65.833 31.177 C 65.833 31.354,65.908 31.500,66.000 31.500 C 66.092 31.500,66.167 31.725,66.167 32.000 C 66.167 32.275,66.242 32.500,66.333 32.500 C 66.425 32.500,66.500 32.800,66.500 33.167 C 66.500 33.533,66.575 33.833,66.667 33.833 C 66.758 33.833,66.833 34.204,66.833 34.657 C 66.833 35.110,66.908 35.527,67.000 35.583 C 67.092 35.640,67.167 35.869,67.167 36.093 L 67.167 36.500 77.167 36.500 L 87.167 36.500 87.167 35.260 C 87.167 34.578,87.092 33.973,87.000 33.917 C 86.908 33.860,86.833 33.113,86.833 32.250 C 86.833 31.387,86.759 30.640,86.667 30.583 C 86.575 30.527,86.500 30.114,86.500 29.667 C 86.500 29.219,86.425 28.807,86.333 28.750 C 86.242 28.693,86.167 28.314,86.167 27.907 C 86.167 27.500,86.092 27.167,86.000 27.167 C 85.908 27.167,85.833 26.946,85.833 26.677 C 85.833 26.407,85.758 26.140,85.667 26.083 C 85.575 26.027,85.500 25.722,85.500 25.407 C 85.500 25.091,85.425 24.833,85.333 24.833 C 85.242 24.833,85.167 24.650,85.167 24.427 C 85.167 24.203,85.092 23.973,85.000 23.917 C 84.908 23.860,84.833 23.668,84.833 23.490 C 84.833 23.312,84.758 23.167,84.667 23.167 C 84.575 23.167,84.500 22.984,84.500 22.760 C 84.500 22.536,84.425 22.307,84.333 22.250 C 84.242 22.193,84.167 22.001,84.167 21.823 C 84.167 21.646,84.092 21.500,84.000 21.500 C 83.908 21.500,83.833 21.350,83.833 21.167 C 83.833 20.983,83.758 20.833,83.667 20.833 C 83.575 20.833,83.500 20.683,83.500 20.500 C 83.500 20.317,83.425 20.167,83.333 20.167 C 83.242 20.167,83.167 20.017,83.167 19.833 C 83.167 19.650,83.092 19.500,83.000 19.500 C 82.908 19.500,82.833 19.402,82.833 19.281 C 82.833 19.161,82.683 18.902,82.500 18.705 C 82.317 18.508,82.167 18.232,82.167 18.090 C 82.167 17.949,82.092 17.833,82.000 17.833 C 81.908 17.833,81.833 17.732,81.833 17.608 C 81.833 17.484,81.608 17.147,81.333 16.860 C 81.058 16.572,80.833 16.253,80.833 16.152 C 80.833 16.050,80.608 15.757,80.333 15.500 C 80.058 15.243,79.833 14.948,79.833 14.844 C 79.833 14.607,74.713 9.500,74.475 9.500 C 74.379 9.500,74.090 9.275,73.833 9.000 C 73.576 8.725,73.295 8.500,73.208 8.500 C 73.121 8.500,72.814 8.275,72.526 8.000 C 72.238 7.725,71.917 7.500,71.813 7.500 C 71.708 7.500,71.501 7.368,71.353 7.207 C 71.205 7.046,70.877 6.808,70.625 6.679 C 70.373 6.550,70.167 6.381,70.167 6.305 C 70.167 6.229,70.033 6.167,69.870 6.167 C 69.707 6.167,69.465 6.017,69.333 5.833 C 69.201 5.650,68.960 5.500,68.797 5.500 C 68.633 5.500,68.500 5.425,68.500 5.333 C 68.500 5.242,68.350 5.167,68.167 5.167 C 67.983 5.167,67.833 5.092,67.833 5.000 C 67.833 4.908,67.735 4.833,67.615 4.833 C 67.495 4.833,67.235 4.683,67.038 4.500 C 66.842 4.317,66.610 4.167,66.523 4.167 C 66.387 4.167,65.779 3.893,64.627 3.312 C 64.468 3.232,64.224 3.167,64.086 3.167 C 63.947 3.167,63.833 3.092,63.833 3.000 C 63.833 2.908,63.683 2.833,63.500 2.833 C 63.317 2.833,63.167 2.758,63.167 2.667 C 63.167 2.575,62.942 2.500,62.667 2.500 C 62.392 2.500,62.167 2.425,62.167 2.333 C 62.167 2.242,61.942 2.167,61.667 2.167 C 61.392 2.167,61.167 2.092,61.167 2.000 C 61.167 1.908,60.942 1.833,60.667 1.833 C 60.392 1.833,60.167 1.758,60.167 1.667 C 60.167 1.575,59.946 1.500,59.677 1.500 C 59.407 1.500,59.140 1.425,59.083 1.333 C 59.027 1.242,58.722 1.167,58.407 1.167 C 58.091 1.167,57.833 1.092,57.833 1.000 C 57.833 0.908,57.458 0.833,57.000 0.833 C 56.542 0.833,56.167 0.758,56.167 0.667 C 56.167 0.575,55.798 0.500,55.347 0.500 C 54.854 0.500,54.501 0.420,54.461 0.298 C 54.394 0.098,40.930 -0.049,37.542 0.114 M204.500 10.501 L 204.500 19.503 214.292 19.460 L 224.083 19.417 224.126 10.458 L 224.170 1.500 214.335 1.500 L 204.500 1.500 204.500 10.501 M236.167 18.667 L 236.167 28.833 231.500 28.833 L 226.833 28.833 226.833 35.667 L 226.833 42.500 231.500 42.500 L 236.167 42.500 236.167 67.323 C 236.167 83.693,236.223 92.182,236.333 92.250 C 236.425 92.307,236.500 92.719,236.500 93.167 C 236.500 93.614,236.575 94.027,236.667 94.083 C 236.758 94.140,236.833 94.407,236.833 94.677 C 236.833 94.946,236.908 95.167,237.000 95.167 C 237.092 95.167,237.167 95.392,237.167 95.667 C 237.167 95.942,237.242 96.167,237.333 96.167 C 237.425 96.167,237.500 96.350,237.500 96.573 C 237.500 96.797,237.575 97.027,237.667 97.083 C 237.758 97.140,237.833 97.332,237.833 97.510 C 237.833 97.688,237.908 97.833,238.000 97.833 C 238.092 97.833,238.167 97.983,238.167 98.167 C 238.167 98.350,238.242 98.500,238.333 98.500 C 238.425 98.500,238.500 98.598,238.500 98.719 C 238.500 98.839,238.650 99.098,238.833 99.295 C 239.017 99.492,239.167 99.729,239.167 99.822 C 239.167 100.087,242.591 103.500,242.857 103.500 C 242.987 103.500,243.201 103.650,243.333 103.833 C 243.465 104.017,243.707 104.167,243.870 104.167 C 244.033 104.167,244.167 104.242,244.167 104.333 C 244.167 104.425,244.317 104.500,244.500 104.500 C 244.683 104.500,244.833 104.575,244.833 104.667 C 244.833 104.758,244.983 104.833,245.167 104.833 C 245.350 104.833,245.500 104.908,245.500 105.000 C 245.500 105.092,245.650 105.167,245.833 105.167 C 246.017 105.167,246.167 105.242,246.167 105.333 C 246.167 105.425,246.392 105.500,246.667 105.500 C 246.942 105.500,247.167 105.575,247.167 105.667 C 247.167 105.758,247.392 105.833,247.667 105.833 C 247.942 105.833,248.167 105.908,248.167 106.000 C 248.167 106.092,248.452 106.167,248.800 106.167 C 249.148 106.167,249.527 106.260,249.642 106.375 C 249.800 106.533,251.159 106.583,255.286 106.583 C 259.487 106.583,260.738 106.536,260.792 106.375 C 260.835 106.246,261.173 106.167,261.681 106.167 C 262.131 106.167,262.500 106.092,262.500 106.000 C 262.500 105.908,262.800 105.833,263.167 105.833 C 263.533 105.833,263.833 105.758,263.833 105.667 C 263.833 105.575,264.058 105.500,264.333 105.500 C 264.608 105.500,264.833 105.425,264.833 105.333 C 264.833 105.242,265.043 105.167,265.300 105.167 C 266.178 105.167,266.167 105.258,266.167 98.133 C 266.167 93.822,266.225 91.500,266.333 91.500 C 266.425 91.500,266.500 91.800,266.500 92.167 C 266.500 92.533,266.575 92.833,266.667 92.833 C 266.758 92.833,266.833 93.059,266.833 93.336 C 266.833 93.612,266.908 93.987,267.000 94.169 C 267.092 94.351,267.242 94.649,267.333 94.831 C 267.425 95.013,267.500 95.313,267.500 95.498 C 267.500 95.682,267.575 95.833,267.667 95.833 C 267.758 95.833,267.833 95.983,267.833 96.167 C 267.833 96.350,267.908 96.500,268.000 96.500 C 268.092 96.500,268.167 96.650,268.167 96.833 C 268.167 97.017,268.242 97.167,268.333 97.167 C 268.425 97.167,268.500 97.317,268.500 97.500 C 268.500 97.683,268.562 97.833,268.639 97.833 C 268.715 97.833,268.883 98.040,269.012 98.292 C 269.142 98.544,269.379 98.871,269.541 99.020 C 269.702 99.168,269.833 99.375,269.833 99.480 C 269.833 99.701,272.589 102.500,272.806 102.500 C 272.886 102.500,273.186 102.725,273.474 103.000 C 273.762 103.275,274.110 103.500,274.248 103.500 C 274.387 103.500,274.500 103.575,274.500 103.667 C 274.500 103.758,274.644 103.833,274.819 103.833 C 274.995 103.833,275.164 103.890,275.194 103.958 C 275.274 104.138,276.655 104.833,276.932 104.833 C 277.061 104.833,277.167 104.908,277.167 105.000 C 277.167 105.092,277.392 105.167,277.667 105.167 C 277.942 105.167,278.167 105.242,278.167 105.333 C 278.167 105.425,278.392 105.500,278.667 105.500 C 278.942 105.500,279.167 105.575,279.167 105.667 C 279.167 105.758,279.425 105.833,279.740 105.833 C 280.056 105.833,280.360 105.908,280.417 106.000 C 280.473 106.092,280.800 106.167,281.143 106.167 C 281.486 106.167,281.860 106.260,281.975 106.375 C 282.133 106.533,283.536 106.583,287.833 106.583 C 292.131 106.583,293.533 106.533,293.692 106.375 C 293.806 106.260,294.218 106.167,294.607 106.167 C 294.996 106.167,295.360 106.092,295.417 106.000 C 295.473 105.908,295.736 105.833,296.000 105.833 C 296.264 105.833,296.527 105.758,296.583 105.667 C 296.640 105.575,296.944 105.500,297.260 105.500 C 297.575 105.500,297.833 105.425,297.833 105.333 C 297.833 105.242,298.016 105.167,298.240 105.167 C 298.464 105.167,298.693 105.092,298.750 105.000 C 298.807 104.908,298.999 104.833,299.177 104.833 C 299.354 104.833,299.500 104.758,299.500 104.667 C 299.500 104.575,299.614 104.500,299.752 104.500 C 299.891 104.500,300.135 104.434,300.294 104.354 C 300.453 104.274,300.921 104.038,301.333 103.829 C 301.746 103.621,302.251 103.368,302.457 103.267 C 302.663 103.166,302.831 103.027,302.832 102.958 C 302.833 102.890,302.983 102.833,303.167 102.833 C 303.350 102.833,303.500 102.771,303.500 102.695 C 303.500 102.619,303.706 102.450,303.958 102.321 C 304.210 102.192,304.538 101.954,304.686 101.793 C 304.834 101.632,305.041 101.500,305.146 101.500 C 305.251 101.500,305.572 101.275,305.860 101.000 C 306.147 100.725,306.453 100.500,306.538 100.500 C 306.623 100.500,306.981 100.200,307.333 99.833 C 307.686 99.467,308.049 99.167,308.141 99.167 C 308.233 99.167,308.839 98.642,309.488 98.000 C 310.874 96.631,310.833 96.646,310.833 97.500 C 310.833 97.867,310.908 98.167,311.000 98.167 C 311.092 98.167,311.167 98.542,311.167 99.000 C 311.167 99.458,311.242 99.833,311.333 99.833 C 311.425 99.833,311.500 100.091,311.500 100.407 C 311.500 100.722,311.575 101.027,311.667 101.083 C 311.758 101.140,311.833 101.332,311.833 101.510 C 311.833 101.688,311.908 101.833,312.000 101.833 C 312.092 101.833,312.167 101.983,312.167 102.167 C 312.167 102.350,312.242 102.500,312.333 102.500 C 312.425 102.500,312.500 102.618,312.500 102.762 C 312.500 103.508,312.387 103.500,323.238 103.500 L 333.500 103.500 333.500 101.865 C 333.500 100.265,333.489 100.219,333.000 99.750 C 332.725 99.487,332.500 99.203,332.500 99.119 C 332.500 99.035,332.275 98.757,332.000 98.500 C 331.725 98.243,331.500 97.930,331.500 97.803 C 331.500 97.677,331.350 97.465,331.167 97.333 C 330.983 97.201,330.833 96.960,330.833 96.797 C 330.833 96.633,330.758 96.500,330.667 96.500 C 330.575 96.500,330.500 96.350,330.500 96.167 C 330.500 95.983,330.425 95.833,330.333 95.833 C 330.242 95.833,330.167 95.650,330.167 95.427 C 330.167 95.203,330.092 94.973,330.000 94.917 C 329.908 94.860,329.833 94.593,329.833 94.323 C 329.833 94.054,329.758 93.833,329.667 93.833 C 329.556 93.833,329.500 86.056,329.500 70.833 C 329.500 55.611,329.444 47.833,329.333 47.833 C 329.236 47.833,329.167 47.281,329.167 46.510 C 329.167 45.782,329.092 45.140,329.000 45.083 C 328.908 45.027,328.833 44.652,328.833 44.250 C 328.833 43.848,328.758 43.473,328.667 43.417 C 328.575 43.360,328.500 43.056,328.500 42.740 C 328.500 42.425,328.425 42.167,328.333 42.167 C 328.242 42.167,328.167 41.942,328.167 41.667 C 328.167 41.392,328.092 41.167,328.000 41.167 C 327.908 41.167,327.833 40.942,327.833 40.667 C 327.833 40.392,327.758 40.167,327.667 40.167 C 327.575 40.167,327.500 40.053,327.500 39.914 C 327.500 39.645,327.387 39.381,326.932 38.583 C 326.775 38.308,326.604 37.952,326.554 37.792 C 326.503 37.631,326.395 37.500,326.314 37.500 C 326.233 37.500,326.167 37.350,326.167 37.167 C 326.167 36.983,326.104 36.833,326.028 36.833 C 325.952 36.833,325.784 36.627,325.654 36.375 C 325.525 36.123,325.302 35.804,325.160 35.667 C 325.017 35.529,324.720 35.154,324.498 34.833 C 324.016 34.135,322.355 32.500,322.128 32.500 C 322.039 32.500,321.757 32.275,321.500 32.000 C 321.243 31.725,320.930 31.500,320.803 31.500 C 320.677 31.500,320.465 31.350,320.333 31.167 C 320.201 30.983,319.976 30.833,319.833 30.833 C 319.690 30.833,319.465 30.683,319.333 30.500 C 319.201 30.317,318.960 30.167,318.797 30.167 C 318.633 30.167,318.500 30.092,318.500 30.000 C 318.500 29.908,318.350 29.833,318.167 29.833 C 317.983 29.833,317.833 29.758,317.833 29.667 C 317.833 29.575,317.683 29.500,317.500 29.500 C 317.317 29.500,317.167 29.425,317.167 29.333 C 317.167 29.242,317.021 29.167,316.843 29.167 C 316.665 29.167,316.473 29.092,316.417 29.000 C 316.360 28.908,316.131 28.833,315.907 28.833 C 315.683 28.833,315.500 28.758,315.500 28.667 C 315.500 28.575,315.275 28.500,315.000 28.500 C 314.725 28.500,314.500 28.425,314.500 28.333 C 314.500 28.242,314.275 28.167,314.000 28.167 C 313.725 28.167,313.500 28.092,313.500 28.000 C 313.500 27.908,313.200 27.833,312.833 27.833 C 312.467 27.833,312.167 27.758,312.167 27.667 C 312.167 27.575,311.867 27.500,311.500 27.500 C 311.133 27.500,310.833 27.425,310.833 27.333 C 310.833 27.242,310.463 27.167,310.010 27.167 C 309.557 27.167,309.140 27.092,309.083 27.000 C 309.027 26.908,308.497 26.833,307.907 26.833 C 307.302 26.833,306.833 26.761,306.833 26.667 C 306.833 26.567,306.198 26.500,305.260 26.500 C 304.391 26.500,303.640 26.425,303.583 26.333 C 303.443 26.106,293.890 26.106,293.750 26.333 C 293.693 26.425,293.014 26.500,292.240 26.500 C 291.413 26.500,290.833 26.569,290.833 26.667 C 290.833 26.759,290.389 26.833,289.833 26.833 C 289.278 26.833,288.833 26.907,288.833 27.000 C 288.833 27.092,288.458 27.167,288.000 27.167 C 287.542 27.167,287.167 27.242,287.167 27.333 C 287.167 27.425,286.909 27.500,286.593 27.500 C 286.278 27.500,285.973 27.575,285.917 27.667 C 285.860 27.758,285.593 27.833,285.323 27.833 C 285.054 27.833,284.833 27.908,284.833 28.000 C 284.833 28.092,284.608 28.167,284.333 28.167 C 284.058 28.167,283.833 28.242,283.833 28.333 C 283.833 28.425,283.650 28.500,283.427 28.500 C 283.203 28.500,282.973 28.575,282.917 28.667 C 282.860 28.758,282.668 28.833,282.490 28.833 C 282.312 28.833,282.167 28.908,282.167 29.000 C 282.167 29.092,282.017 29.167,281.833 29.167 C 281.650 29.167,281.500 29.242,281.500 29.333 C 281.500 29.425,281.402 29.500,281.283 29.500 C 280.977 29.500,280.170 29.892,280.168 30.042 C 280.167 30.110,280.017 30.167,279.833 30.167 C 279.650 30.167,279.500 30.242,279.500 30.333 C 279.500 30.425,279.350 30.500,279.167 30.500 C 278.983 30.500,278.833 30.562,278.833 30.639 C 278.833 30.715,278.627 30.883,278.375 31.012 C 278.123 31.142,277.795 31.379,277.647 31.541 C 277.499 31.702,277.291 31.833,277.184 31.833 C 277.078 31.833,276.663 32.152,276.261 32.542 C 275.859 32.931,275.355 33.408,275.140 33.601 C 274.363 34.298,272.833 36.021,272.833 36.197 C 272.833 36.296,272.702 36.499,272.541 36.647 C 272.379 36.795,272.142 37.123,272.012 37.375 C 271.883 37.627,271.715 37.833,271.639 37.833 C 271.562 37.833,271.500 37.983,271.500 38.167 C 271.500 38.350,271.425 38.500,271.333 38.500 C 271.242 38.500,271.167 38.650,271.167 38.833 C 271.167 39.017,271.092 39.167,271.000 39.167 C 270.908 39.167,270.833 39.317,270.833 39.500 C 270.833 39.683,270.758 39.833,270.667 39.833 C 270.575 39.833,270.500 39.983,270.500 40.167 C 270.500 40.350,270.425 40.500,270.333 40.500 C 270.242 40.500,270.167 40.646,270.167 40.823 C 270.167 41.001,270.092 41.193,270.000 41.250 C 269.908 41.307,269.833 41.536,269.833 41.760 C 269.833 41.984,269.758 42.167,269.667 42.167 C 269.575 42.167,269.500 42.392,269.500 42.667 C 269.500 42.942,269.425 43.167,269.333 43.167 C 269.242 43.167,269.167 43.467,269.167 43.833 C 269.167 44.200,269.092 44.500,269.000 44.500 C 268.908 44.500,268.833 44.800,268.833 45.167 C 268.833 45.533,268.758 45.833,268.667 45.833 C 268.574 45.833,268.500 46.274,268.500 46.823 C 268.500 47.368,268.425 47.860,268.333 47.917 C 268.234 47.978,268.167 49.057,268.167 50.593 L 268.167 53.167 277.333 53.167 L 286.500 53.167 286.500 52.260 C 286.500 51.761,286.575 51.307,286.667 51.250 C 286.758 51.193,286.833 50.701,286.833 50.157 C 286.833 49.608,286.908 49.167,287.000 49.167 C 287.092 49.167,287.167 48.867,287.167 48.500 C 287.167 48.133,287.242 47.833,287.333 47.833 C 287.425 47.833,287.500 47.650,287.500 47.427 C 287.500 47.203,287.575 46.973,287.667 46.917 C 287.758 46.860,287.833 46.668,287.833 46.490 C 287.833 46.312,287.908 46.167,288.000 46.167 C 288.092 46.167,288.167 46.073,288.167 45.958 C 288.167 45.844,288.392 45.487,288.667 45.167 C 288.941 44.846,289.166 44.518,289.166 44.439 C 289.167 44.239,290.358 43.167,290.579 43.167 C 290.678 43.167,290.868 43.017,291.000 42.833 C 291.132 42.650,291.374 42.500,291.537 42.500 C 291.700 42.500,291.833 42.425,291.833 42.333 C 291.833 42.242,291.983 42.167,292.167 42.167 C 292.350 42.167,292.500 42.092,292.500 42.000 C 292.500 41.908,292.725 41.833,293.000 41.833 C 293.275 41.833,293.500 41.758,293.500 41.667 C 293.500 41.575,293.758 41.500,294.073 41.500 C 294.389 41.500,294.693 41.425,294.750 41.333 C 294.807 41.242,295.299 41.167,295.843 41.167 C 296.392 41.167,296.833 41.092,296.833 41.000 C 296.833 40.897,297.722 40.833,299.167 40.833 C 300.611 40.833,301.500 40.897,301.500 41.000 C 301.500 41.097,302.056 41.167,302.833 41.167 C 303.611 41.167,304.167 41.236,304.167 41.333 C 304.167 41.425,304.462 41.500,304.823 41.500 C 305.185 41.500,305.527 41.575,305.583 41.667 C 305.640 41.758,305.865 41.833,306.083 41.833 C 306.302 41.833,306.527 41.908,306.583 42.000 C 306.640 42.092,306.869 42.167,307.093 42.167 C 307.317 42.167,307.500 42.242,307.500 42.333 C 307.500 42.425,307.619 42.500,307.764 42.500 C 308.118 42.500,310.167 44.535,310.167 44.887 C 310.167 45.041,310.242 45.167,310.333 45.167 C 310.425 45.167,310.500 45.425,310.500 45.740 C 310.500 46.056,310.575 46.360,310.667 46.417 C 310.758 46.473,310.833 47.190,310.833 48.010 C 310.833 48.892,310.765 49.500,310.667 49.500 C 310.575 49.500,310.500 49.800,310.500 50.167 C 310.500 50.533,310.425 50.833,310.333 50.833 C 310.242 50.833,310.167 51.058,310.167 51.333 C 310.167 51.608,310.092 51.833,310.000 51.833 C 309.908 51.833,309.833 51.983,309.833 52.167 C 309.833 52.350,309.771 52.500,309.695 52.500 C 309.619 52.500,309.450 52.705,309.320 52.956 C 308.994 53.585,307.731 54.833,307.421 54.833 C 307.281 54.833,307.166 54.890,307.165 54.958 C 307.164 55.108,306.357 55.500,306.050 55.500 C 305.931 55.500,305.833 55.575,305.833 55.667 C 305.833 55.758,305.608 55.833,305.333 55.833 C 305.058 55.833,304.833 55.908,304.833 56.000 C 304.833 56.092,304.575 56.167,304.260 56.167 C 303.944 56.167,303.640 56.242,303.583 56.333 C 303.527 56.425,303.260 56.500,302.990 56.500 C 302.721 56.500,302.500 56.575,302.500 56.667 C 302.500 56.758,302.200 56.833,301.833 56.833 C 301.467 56.833,301.167 56.908,301.167 57.000 C 301.167 57.092,300.834 57.167,300.427 57.167 C 300.019 57.167,299.640 57.242,299.583 57.333 C 299.527 57.425,299.185 57.500,298.823 57.500 C 298.462 57.500,298.167 57.575,298.167 57.667 C 298.167 57.758,297.759 57.833,297.260 57.833 C 296.761 57.833,296.307 57.908,296.250 58.000 C 296.193 58.092,295.743 58.167,295.250 58.167 C 294.757 58.167,294.307 58.242,294.250 58.333 C 294.193 58.425,293.626 58.500,292.990 58.500 C 292.330 58.500,291.833 58.572,291.833 58.667 C 291.833 58.769,291.031 58.833,289.760 58.833 C 288.557 58.833,287.643 58.903,287.583 59.000 C 287.527 59.092,287.035 59.167,286.490 59.167 C 285.941 59.167,285.500 59.241,285.500 59.333 C 285.500 59.425,285.200 59.500,284.833 59.500 C 284.467 59.500,284.167 59.575,284.167 59.667 C 284.167 59.758,283.867 59.833,283.500 59.833 C 283.133 59.833,282.833 59.908,282.833 60.000 C 282.833 60.092,282.608 60.167,282.333 60.167 C 282.058 60.167,281.833 60.242,281.833 60.333 C 281.833 60.425,281.608 60.500,281.333 60.500 C 281.058 60.500,280.833 60.575,280.833 60.667 C 280.833 60.758,280.608 60.833,280.333 60.833 C 280.058 60.833,279.833 60.908,279.833 61.000 C 279.833 61.092,279.683 61.167,279.500 61.167 C 279.317 61.167,279.167 61.242,279.167 61.333 C 279.167 61.425,279.019 61.500,278.838 61.500 C 278.657 61.500,278.188 61.691,277.796 61.924 C 277.404 62.157,276.952 62.391,276.792 62.443 C 276.631 62.496,276.500 62.605,276.500 62.686 C 276.500 62.767,276.350 62.833,276.167 62.833 C 275.983 62.833,275.833 62.908,275.833 63.000 C 275.833 63.092,275.732 63.167,275.608 63.167 C 275.484 63.167,275.147 63.392,274.860 63.667 C 274.572 63.942,274.260 64.167,274.166 64.167 C 273.917 64.167,270.167 67.959,270.167 68.211 C 270.167 68.330,270.017 68.535,269.833 68.667 C 269.650 68.799,269.500 69.006,269.500 69.127 C 269.500 69.248,269.350 69.508,269.167 69.705 C 268.983 69.902,268.833 70.161,268.833 70.281 C 268.833 70.402,268.758 70.500,268.667 70.500 C 268.575 70.500,268.500 70.650,268.500 70.833 C 268.500 71.017,268.425 71.167,268.333 71.167 C 268.242 71.167,268.167 71.317,268.167 71.500 C 268.167 71.683,268.092 71.833,268.000 71.833 C 267.908 71.833,267.833 72.058,267.833 72.333 C 267.833 72.608,267.758 72.833,267.667 72.833 C 267.575 72.833,267.500 72.983,267.500 73.167 C 267.500 73.350,267.425 73.500,267.333 73.500 C 267.242 73.500,267.167 73.721,267.167 73.990 C 267.167 74.260,267.092 74.527,267.000 74.583 C 266.908 74.640,266.833 74.944,266.833 75.260 C 266.833 75.575,266.758 75.833,266.667 75.833 C 266.575 75.833,266.500 76.129,266.500 76.490 C 266.500 76.851,266.425 77.193,266.333 77.250 C 266.242 77.307,266.167 77.757,266.167 78.250 C 266.167 78.743,266.092 79.193,266.000 79.250 C 265.902 79.311,265.833 80.324,265.833 81.727 C 265.833 83.350,265.770 84.163,265.633 84.300 C 265.478 84.456,265.478 84.544,265.633 84.700 C 265.770 84.837,265.833 85.650,265.833 87.273 C 265.833 88.676,265.902 89.689,266.000 89.750 C 266.092 89.807,266.167 90.149,266.167 90.510 L 266.167 91.167 264.010 91.167 C 262.752 91.167,261.810 91.097,261.750 91.000 C 261.691 90.905,260.859 90.833,259.821 90.833 C 258.079 90.833,257.570 90.723,257.090 90.244 C 256.808 89.962,256.500 89.357,256.500 89.086 C 256.500 88.947,256.425 88.833,256.333 88.833 C 256.242 88.833,256.167 88.538,256.167 88.177 C 256.167 87.815,256.092 87.473,256.000 87.417 C 255.890 87.349,255.833 79.665,255.833 64.907 L 255.833 42.500 261.167 42.500 L 266.500 42.500 266.500 35.667 L 266.500 28.833 261.167 28.833 L 255.833 28.833 255.833 18.667 L 255.833 8.500 246.000 8.500 L 236.167 8.500 236.167 18.667 M197.083 26.000 C 197.027 26.092,196.497 26.167,195.907 26.167 C 195.302 26.167,194.833 26.239,194.833 26.333 C 194.833 26.425,194.613 26.500,194.343 26.500 C 194.074 26.500,193.807 26.575,193.750 26.667 C 193.693 26.758,193.464 26.833,193.240 26.833 C 193.016 26.833,192.833 26.908,192.833 27.000 C 192.833 27.092,192.688 27.167,192.510 27.167 C 192.332 27.167,192.140 27.242,192.083 27.333 C 192.027 27.425,191.797 27.500,191.573 27.500 C 191.350 27.500,191.167 27.575,191.167 27.667 C 191.167 27.758,191.068 27.833,190.948 27.833 C 190.828 27.833,190.569 27.983,190.372 28.167 C 190.175 28.350,189.898 28.500,189.757 28.500 C 189.616 28.500,189.500 28.575,189.500 28.667 C 189.500 28.758,189.406 28.834,189.292 28.834 C 189.177 28.834,188.821 29.059,188.500 29.333 C 188.179 29.608,187.860 29.833,187.790 29.833 C 187.721 29.833,187.428 30.058,187.140 30.333 C 186.853 30.608,186.553 30.833,186.474 30.833 C 186.395 30.833,186.095 31.058,185.807 31.333 C 185.519 31.608,185.219 31.833,185.140 31.833 C 184.910 31.833,181.274 35.545,181.014 36.046 C 180.883 36.295,180.715 36.500,180.639 36.500 C 180.562 36.500,180.500 36.650,180.500 36.833 C 180.500 37.017,180.444 37.167,180.375 37.168 C 180.225 37.170,179.833 37.977,179.833 38.283 C 179.833 38.402,179.758 38.500,179.667 38.500 C 179.575 38.500,179.500 38.646,179.500 38.823 C 179.500 39.001,179.425 39.193,179.333 39.250 C 179.242 39.307,179.167 39.536,179.167 39.760 C 179.167 39.984,179.092 40.167,179.000 40.167 C 178.892 40.167,178.833 37.944,178.833 33.833 L 178.833 27.500 169.000 27.500 L 159.167 27.500 159.167 65.500 L 159.167 103.500 169.000 103.500 L 178.833 103.500 178.833 81.833 C 178.833 67.500,178.890 60.167,179.000 60.167 C 179.092 60.167,179.167 59.796,179.167 59.343 C 179.167 58.890,179.242 58.473,179.333 58.417 C 179.425 58.360,179.500 58.056,179.500 57.740 C 179.500 57.425,179.575 57.167,179.667 57.167 C 179.758 57.167,179.833 56.942,179.833 56.667 C 179.833 56.392,179.908 56.167,180.000 56.167 C 180.092 56.167,180.167 55.942,180.167 55.667 C 180.167 55.392,180.242 55.167,180.333 55.167 C 180.425 55.167,180.500 55.017,180.500 54.833 C 180.500 54.650,180.575 54.500,180.667 54.500 C 180.758 54.500,180.833 54.402,180.833 54.283 C 180.833 53.977,181.225 53.170,181.375 53.168 C 181.444 53.167,181.500 53.017,181.500 52.833 C 181.500 52.650,181.562 52.500,181.639 52.500 C 181.715 52.500,181.883 52.295,182.014 52.045 C 182.320 51.455,184.930 48.833,185.211 48.833 C 185.329 48.833,185.535 48.683,185.667 48.500 C 185.799 48.317,186.040 48.167,186.203 48.167 C 186.367 48.167,186.500 48.092,186.500 48.000 C 186.500 47.908,186.650 47.833,186.833 47.833 C 187.017 47.833,187.167 47.758,187.167 47.667 C 187.167 47.575,187.350 47.500,187.573 47.500 C 187.797 47.500,188.027 47.425,188.083 47.333 C 188.140 47.242,188.365 47.167,188.583 47.167 C 188.802 47.167,189.027 47.092,189.083 47.000 C 189.140 46.908,189.482 46.833,189.843 46.833 C 190.204 46.833,190.500 46.758,190.500 46.667 C 190.500 46.571,191.000 46.500,191.667 46.500 C 192.333 46.500,192.833 46.429,192.833 46.333 C 192.833 46.232,193.552 46.167,194.657 46.167 C 195.693 46.167,196.525 46.239,196.583 46.333 C 196.640 46.425,197.387 46.500,198.250 46.500 C 199.113 46.500,199.860 46.575,199.917 46.667 C 199.973 46.758,200.353 46.833,200.760 46.833 L 201.500 46.833 201.500 36.500 L 201.500 26.167 200.833 26.167 C 200.467 26.167,200.167 26.092,200.167 26.000 C 200.167 25.901,199.559 25.833,198.677 25.833 C 197.857 25.833,197.140 25.908,197.083 26.000 M115.167 26.333 C 115.167 26.432,114.556 26.500,113.667 26.500 C 112.778 26.500,112.167 26.568,112.167 26.667 C 112.167 26.759,111.722 26.833,111.167 26.833 C 110.611 26.833,110.167 26.907,110.167 27.000 C 110.167 27.092,109.834 27.167,109.427 27.167 C 109.019 27.167,108.640 27.242,108.583 27.333 C 108.527 27.425,108.264 27.500,108.000 27.500 C 107.736 27.500,107.473 27.575,107.417 27.667 C 107.360 27.758,107.056 27.833,106.740 27.833 C 106.425 27.833,106.167 27.908,106.167 28.000 C 106.167 28.092,105.942 28.167,105.667 28.167 C 105.392 28.167,105.167 28.242,105.167 28.333 C 105.167 28.425,105.021 28.500,104.843 28.500 C 104.665 28.500,104.473 28.575,104.417 28.667 C 104.360 28.758,104.131 28.833,103.907 28.833 C 103.683 28.833,103.500 28.908,103.500 29.000 C 103.500 29.092,103.350 29.167,103.167 29.167 C 102.983 29.167,102.833 29.242,102.833 29.333 C 102.833 29.425,102.683 29.500,102.500 29.500 C 102.317 29.500,102.167 29.575,102.167 29.667 C 102.167 29.758,102.017 29.833,101.833 29.833 C 101.650 29.833,101.500 29.908,101.500 30.000 C 101.500 30.092,101.350 30.167,101.167 30.167 C 100.983 30.167,100.833 30.242,100.833 30.333 C 100.833 30.425,100.735 30.500,100.615 30.500 C 100.495 30.500,100.235 30.650,100.038 30.833 C 99.842 31.017,99.602 31.167,99.505 31.167 C 99.409 31.167,99.095 31.392,98.807 31.667 C 98.519 31.942,98.219 32.167,98.140 32.167 C 97.952 32.167,94.500 35.619,94.500 35.807 C 94.500 35.886,94.275 36.186,94.000 36.474 C 93.725 36.762,93.500 37.076,93.500 37.172 C 93.500 37.268,93.350 37.508,93.167 37.705 C 92.983 37.902,92.833 38.161,92.833 38.281 C 92.833 38.402,92.758 38.500,92.667 38.500 C 92.575 38.500,92.500 38.650,92.500 38.833 C 92.500 39.017,92.425 39.167,92.333 39.167 C 92.242 39.167,92.167 39.317,92.167 39.500 C 92.167 39.683,92.092 39.833,92.000 39.833 C 91.908 39.833,91.833 39.979,91.833 40.157 C 91.833 40.335,91.758 40.527,91.667 40.583 C 91.575 40.640,91.500 40.869,91.500 41.093 C 91.500 41.317,91.425 41.500,91.333 41.500 C 91.242 41.500,91.167 41.725,91.167 42.000 C 91.167 42.275,91.092 42.500,91.000 42.500 C 90.908 42.500,90.833 42.725,90.833 43.000 C 90.833 43.275,90.758 43.500,90.667 43.500 C 90.575 43.500,90.500 43.758,90.500 44.073 C 90.500 44.389,90.425 44.693,90.333 44.750 C 90.242 44.807,90.167 45.149,90.167 45.510 C 90.167 45.871,90.092 46.167,90.000 46.167 C 89.905 46.167,89.833 46.667,89.833 47.333 C 89.833 48.000,89.762 48.500,89.667 48.500 C 89.563 48.500,89.500 49.389,89.500 50.833 L 89.500 53.167 98.667 53.167 L 107.833 53.167 107.833 52.677 C 107.833 52.407,107.908 52.140,108.000 52.083 C 108.092 52.027,108.167 51.422,108.167 50.740 C 108.167 50.024,108.237 49.500,108.333 49.500 C 108.425 49.500,108.500 49.200,108.500 48.833 C 108.500 48.467,108.575 48.167,108.667 48.167 C 108.758 48.167,108.833 47.942,108.833 47.667 C 108.833 47.392,108.908 47.167,109.000 47.167 C 109.092 47.167,109.167 47.017,109.167 46.833 C 109.167 46.650,109.242 46.500,109.333 46.500 C 109.425 46.500,109.500 46.350,109.500 46.167 C 109.500 45.983,109.575 45.833,109.667 45.833 C 109.758 45.833,109.833 45.717,109.833 45.574 C 109.833 45.288,112.023 43.049,112.651 42.693 C 112.868 42.569,113.300 42.326,113.611 42.151 C 113.922 41.976,114.325 41.833,114.505 41.833 C 114.686 41.833,114.833 41.758,114.833 41.667 C 114.833 41.575,115.133 41.500,115.500 41.500 C 115.867 41.500,116.167 41.425,116.167 41.333 C 116.167 41.241,116.611 41.167,117.167 41.167 C 117.722 41.167,118.167 41.093,118.167 41.000 C 118.167 40.897,119.056 40.833,120.500 40.833 C 121.944 40.833,122.833 40.897,122.833 41.000 C 122.833 41.097,123.389 41.167,124.167 41.167 C 124.944 41.167,125.500 41.236,125.500 41.333 C 125.500 41.425,125.833 41.500,126.240 41.500 C 126.647 41.500,127.027 41.575,127.083 41.667 C 127.140 41.758,127.407 41.833,127.677 41.833 C 127.946 41.833,128.167 41.908,128.167 42.000 C 128.167 42.092,128.317 42.167,128.500 42.167 C 128.683 42.167,128.833 42.242,128.833 42.333 C 128.833 42.425,128.983 42.500,129.167 42.500 C 129.350 42.500,129.500 42.562,129.500 42.639 C 129.500 42.715,129.706 42.883,129.958 43.014 C 130.582 43.335,131.167 43.930,131.167 44.242 C 131.167 44.384,131.223 44.500,131.293 44.500 C 131.362 44.500,131.517 44.744,131.637 45.042 C 131.757 45.340,131.925 45.714,132.011 45.873 C 132.224 46.268,132.214 49.833,132.000 49.833 C 131.908 49.833,131.833 50.133,131.833 50.500 C 131.833 50.867,131.758 51.167,131.667 51.167 C 131.575 51.167,131.500 51.317,131.500 51.500 C 131.500 51.683,131.425 51.833,131.333 51.833 C 131.242 51.833,131.167 51.983,131.167 52.167 C 131.167 52.350,131.092 52.500,131.000 52.500 C 130.908 52.500,130.833 52.614,130.833 52.754 C 130.833 53.007,129.123 54.830,128.879 54.837 C 128.808 54.839,128.563 54.987,128.333 55.167 C 128.104 55.346,127.748 55.494,127.542 55.496 C 127.335 55.498,127.167 55.575,127.167 55.667 C 127.167 55.758,126.942 55.833,126.667 55.833 C 126.392 55.833,126.167 55.908,126.167 56.000 C 126.167 56.092,125.909 56.167,125.593 56.167 C 125.278 56.167,124.973 56.242,124.917 56.333 C 124.860 56.425,124.593 56.500,124.323 56.500 C 124.054 56.500,123.833 56.575,123.833 56.667 C 123.833 56.758,123.533 56.833,123.167 56.833 C 122.800 56.833,122.500 56.908,122.500 57.000 C 122.500 57.092,122.200 57.167,121.833 57.167 C 121.467 57.167,121.167 57.242,121.167 57.333 C 121.167 57.425,120.792 57.500,120.333 57.500 C 119.875 57.500,119.500 57.575,119.500 57.667 C 119.500 57.758,119.129 57.833,118.677 57.833 C 118.224 57.833,117.807 57.908,117.750 58.000 C 117.693 58.092,117.206 58.167,116.667 58.167 C 116.127 58.167,115.640 58.242,115.583 58.333 C 115.527 58.425,114.960 58.500,114.323 58.500 C 113.663 58.500,113.167 58.572,113.167 58.667 C 113.167 58.769,112.364 58.833,111.093 58.833 C 109.891 58.833,108.976 58.903,108.917 59.000 C 108.860 59.092,108.410 59.167,107.917 59.167 C 107.423 59.167,106.973 59.242,106.917 59.333 C 106.860 59.425,106.518 59.500,106.157 59.500 C 105.796 59.500,105.500 59.575,105.500 59.667 C 105.500 59.758,105.200 59.833,104.833 59.833 C 104.467 59.833,104.167 59.908,104.167 60.000 C 104.167 60.092,103.942 60.167,103.667 60.167 C 103.392 60.167,103.167 60.242,103.167 60.333 C 103.167 60.425,102.942 60.500,102.667 60.500 C 102.392 60.500,102.167 60.575,102.167 60.667 C 102.167 60.758,101.942 60.833,101.667 60.833 C 101.392 60.833,101.167 60.908,101.167 61.000 C 101.167 61.092,101.017 61.167,100.833 61.167 C 100.650 61.167,100.500 61.242,100.500 61.333 C 100.500 61.425,100.350 61.500,100.167 61.500 C 99.983 61.500,99.833 61.575,99.833 61.667 C 99.833 61.758,99.683 61.833,99.500 61.833 C 99.317 61.833,99.167 61.908,99.167 62.000 C 99.167 62.092,99.017 62.167,98.833 62.167 C 98.650 62.167,98.500 62.242,98.500 62.333 C 98.500 62.425,98.350 62.500,98.167 62.500 C 97.983 62.500,97.833 62.575,97.833 62.667 C 97.833 62.758,97.700 62.833,97.537 62.833 C 97.374 62.833,97.132 62.983,97.000 63.167 C 96.868 63.350,96.663 63.500,96.545 63.500 C 96.427 63.500,96.095 63.725,95.807 64.000 C 95.519 64.275,95.216 64.500,95.133 64.500 C 94.922 64.500,91.833 67.654,91.833 67.869 C 91.833 67.966,91.702 68.166,91.541 68.314 C 91.379 68.462,91.142 68.790,91.012 69.042 C 90.883 69.294,90.715 69.500,90.639 69.500 C 90.562 69.500,90.500 69.650,90.500 69.833 C 90.500 70.017,90.444 70.167,90.375 70.168 C 90.225 70.170,89.833 70.977,89.833 71.283 C 89.833 71.402,89.758 71.500,89.667 71.500 C 89.575 71.500,89.500 71.650,89.500 71.833 C 89.500 72.017,89.425 72.167,89.333 72.167 C 89.242 72.167,89.167 72.317,89.167 72.500 C 89.167 72.683,89.092 72.833,89.000 72.833 C 88.908 72.833,88.833 73.058,88.833 73.333 C 88.833 73.608,88.758 73.833,88.667 73.833 C 88.575 73.833,88.500 74.058,88.500 74.333 C 88.500 74.608,88.425 74.833,88.333 74.833 C 88.242 74.833,88.167 75.133,88.167 75.500 C 88.167 75.867,88.092 76.167,88.000 76.167 C 87.908 76.167,87.833 76.500,87.833 76.907 C 87.833 77.314,87.758 77.693,87.667 77.750 C 87.575 77.807,87.500 78.294,87.500 78.833 C 87.500 79.373,87.425 79.860,87.333 79.917 C 87.229 79.981,87.167 81.724,87.167 84.593 C 87.167 87.531,87.226 89.167,87.333 89.167 C 87.426 89.167,87.500 89.611,87.500 90.167 C 87.500 90.722,87.574 91.167,87.667 91.167 C 87.758 91.167,87.833 91.462,87.833 91.823 C 87.833 92.185,87.908 92.527,88.000 92.583 C 88.092 92.640,88.167 92.944,88.167 93.260 C 88.167 93.575,88.242 93.833,88.333 93.833 C 88.425 93.833,88.500 94.058,88.500 94.333 C 88.500 94.608,88.575 94.833,88.667 94.833 C 88.758 94.833,88.833 94.983,88.833 95.167 C 88.833 95.350,88.908 95.500,89.000 95.500 C 89.092 95.500,89.167 95.648,89.167 95.829 C 89.167 96.010,89.357 96.478,89.591 96.871 C 89.824 97.263,90.058 97.715,90.110 97.875 C 90.163 98.035,90.272 98.167,90.353 98.167 C 90.434 98.167,90.500 98.280,90.500 98.418 C 90.500 98.557,90.725 98.905,91.000 99.193 C 91.275 99.481,91.500 99.785,91.500 99.869 C 91.500 100.078,93.991 102.500,94.206 102.500 C 94.300 102.500,94.499 102.632,94.647 102.793 C 94.795 102.954,95.123 103.192,95.375 103.321 C 95.627 103.450,95.833 103.619,95.833 103.695 C 95.833 103.771,95.983 103.833,96.167 103.833 C 96.350 103.833,96.500 103.908,96.500 104.000 C 96.500 104.092,96.650 104.167,96.833 104.167 C 97.017 104.167,97.167 104.242,97.167 104.333 C 97.167 104.425,97.317 104.500,97.500 104.500 C 97.683 104.500,97.833 104.575,97.833 104.667 C 97.833 104.758,97.983 104.833,98.167 104.833 C 98.350 104.833,98.500 104.908,98.500 105.000 C 98.500 105.092,98.725 105.167,99.000 105.167 C 99.275 105.167,99.500 105.242,99.500 105.333 C 99.500 105.425,99.725 105.500,100.000 105.500 C 100.275 105.500,100.500 105.575,100.500 105.667 C 100.500 105.758,100.800 105.833,101.167 105.833 C 101.533 105.833,101.833 105.908,101.833 106.000 C 101.833 106.092,102.202 106.167,102.653 106.167 C 103.160 106.167,103.499 106.246,103.542 106.375 C 103.595 106.536,104.880 106.583,109.214 106.583 C 113.474 106.583,114.867 106.533,115.025 106.375 C 115.140 106.260,115.593 106.167,116.033 106.167 C 116.473 106.167,116.833 106.092,116.833 106.000 C 116.833 105.908,117.091 105.833,117.407 105.833 C 117.722 105.833,118.027 105.758,118.083 105.667 C 118.140 105.575,118.407 105.500,118.677 105.500 C 118.946 105.500,119.167 105.425,119.167 105.333 C 119.167 105.242,119.392 105.167,119.667 105.167 C 119.942 105.167,120.167 105.092,120.167 105.000 C 120.167 104.908,120.312 104.833,120.490 104.833 C 120.668 104.833,120.860 104.758,120.917 104.667 C 120.973 104.575,121.203 104.500,121.427 104.500 C 121.650 104.500,121.833 104.425,121.833 104.333 C 121.833 104.242,121.983 104.167,122.167 104.167 C 122.350 104.167,122.500 104.092,122.500 104.000 C 122.500 103.908,122.650 103.833,122.833 103.833 C 123.017 103.833,123.167 103.758,123.167 103.667 C 123.167 103.575,123.282 103.500,123.424 103.500 C 123.565 103.500,123.842 103.350,124.038 103.167 C 124.235 102.983,124.495 102.833,124.615 102.833 C 124.735 102.833,124.833 102.758,124.833 102.667 C 124.833 102.575,124.967 102.500,125.130 102.500 C 125.293 102.500,125.535 102.350,125.667 102.167 C 125.799 101.983,125.992 101.833,126.095 101.833 C 126.199 101.833,126.519 101.608,126.807 101.333 C 127.095 101.058,127.413 100.833,127.515 100.833 C 127.617 100.833,127.898 100.624,128.141 100.369 C 128.384 100.113,128.846 99.721,129.167 99.497 C 129.487 99.274,130.261 98.575,130.885 97.944 C 131.509 97.313,132.034 96.824,132.051 96.857 C 132.069 96.890,132.177 97.084,132.292 97.289 C 132.406 97.494,132.500 98.071,132.500 98.571 C 132.500 99.071,132.575 99.527,132.667 99.583 C 132.758 99.640,132.833 99.944,132.833 100.260 C 132.833 100.575,132.908 100.833,133.000 100.833 C 133.092 100.833,133.167 101.016,133.167 101.240 C 133.167 101.464,133.242 101.693,133.333 101.750 C 133.425 101.807,133.500 101.999,133.500 102.177 C 133.500 102.354,133.557 102.500,133.626 102.500 C 133.695 102.500,133.852 102.725,133.973 103.000 L 134.195 103.500 144.681 103.500 L 155.167 103.500 155.167 101.939 L 155.167 100.378 154.000 99.167 C 153.358 98.500,152.833 97.859,152.833 97.741 C 152.833 97.624,152.777 97.503,152.708 97.472 C 152.532 97.394,151.500 95.334,151.500 95.060 C 151.500 94.935,151.425 94.833,151.333 94.833 C 151.242 94.833,151.167 94.533,151.167 94.167 C 151.167 93.800,151.092 93.500,151.000 93.500 C 150.890 93.500,150.833 85.670,150.833 70.343 C 150.833 55.085,150.776 47.151,150.667 47.083 C 150.575 47.027,150.500 46.464,150.500 45.833 C 150.500 45.202,150.425 44.640,150.333 44.583 C 150.242 44.527,150.167 44.185,150.167 43.823 C 150.167 43.462,150.092 43.167,150.000 43.167 C 149.908 43.167,149.833 42.867,149.833 42.500 C 149.833 42.133,149.758 41.833,149.667 41.833 C 149.575 41.833,149.500 41.608,149.500 41.333 C 149.500 41.058,149.425 40.833,149.333 40.833 C 149.242 40.833,149.167 40.650,149.167 40.427 C 149.167 40.203,149.092 39.973,149.000 39.917 C 148.908 39.860,148.833 39.668,148.833 39.490 C 148.833 39.312,148.758 39.167,148.667 39.167 C 148.575 39.167,148.500 39.017,148.500 38.833 C 148.500 38.650,148.425 38.500,148.333 38.500 C 148.242 38.500,148.167 38.350,148.167 38.167 C 148.167 37.983,148.092 37.833,148.000 37.833 C 147.908 37.833,147.833 37.735,147.833 37.615 C 147.833 37.495,147.683 37.235,147.500 37.038 C 147.317 36.842,147.167 36.602,147.167 36.505 C 147.167 36.409,146.942 36.095,146.667 35.807 C 146.392 35.519,146.167 35.215,146.167 35.132 C 146.167 34.934,143.351 32.167,143.150 32.167 C 143.066 32.167,142.762 31.942,142.474 31.667 C 142.186 31.392,141.884 31.167,141.802 31.167 C 141.720 31.167,141.492 31.017,141.295 30.833 C 141.098 30.650,140.839 30.500,140.719 30.500 C 140.598 30.500,140.500 30.425,140.500 30.333 C 140.500 30.242,140.350 30.167,140.167 30.167 C 139.983 30.167,139.833 30.092,139.833 30.000 C 139.833 29.908,139.683 29.833,139.500 29.833 C 139.317 29.833,139.167 29.758,139.167 29.667 C 139.167 29.575,139.017 29.500,138.833 29.500 C 138.650 29.500,138.500 29.425,138.500 29.333 C 138.500 29.242,138.350 29.167,138.167 29.167 C 137.983 29.167,137.833 29.092,137.833 29.000 C 137.833 28.908,137.608 28.833,137.333 28.833 C 137.058 28.833,136.833 28.758,136.833 28.667 C 136.833 28.575,136.650 28.500,136.427 28.500 C 136.203 28.500,135.973 28.425,135.917 28.333 C 135.860 28.242,135.593 28.167,135.323 28.167 C 135.054 28.167,134.833 28.092,134.833 28.000 C 134.833 27.908,134.533 27.833,134.167 27.833 C 133.800 27.833,133.500 27.758,133.500 27.667 C 133.500 27.575,133.200 27.500,132.833 27.500 C 132.467 27.500,132.167 27.425,132.167 27.333 C 132.167 27.242,131.792 27.167,131.333 27.167 C 130.875 27.167,130.500 27.092,130.500 27.000 C 130.500 26.906,130.031 26.833,129.427 26.833 C 128.836 26.833,128.307 26.758,128.250 26.667 C 128.193 26.575,127.481 26.500,126.667 26.500 C 125.852 26.500,125.140 26.425,125.083 26.333 C 125.018 26.228,123.165 26.167,120.073 26.167 C 116.913 26.167,115.167 26.226,115.167 26.333 M361.583 26.333 C 361.527 26.425,360.927 26.500,360.250 26.500 C 359.573 26.500,358.973 26.575,358.917 26.667 C 358.860 26.758,358.443 26.833,357.990 26.833 C 357.537 26.833,357.167 26.908,357.167 27.000 C 357.167 27.092,356.792 27.167,356.333 27.167 C 355.875 27.167,355.500 27.242,355.500 27.333 C 355.500 27.425,355.242 27.500,354.927 27.500 C 354.611 27.500,354.307 27.575,354.250 27.667 C 354.193 27.758,353.926 27.833,353.657 27.833 C 353.387 27.833,353.167 27.908,353.167 28.000 C 353.167 28.092,352.942 28.167,352.667 28.167 C 352.392 28.167,352.167 28.242,352.167 28.333 C 352.167 28.425,351.942 28.500,351.667 28.500 C 351.392 28.500,351.167 28.575,351.167 28.667 C 351.167 28.758,350.984 28.833,350.760 28.833 C 350.536 28.833,350.307 28.908,350.250 29.000 C 350.193 29.092,350.001 29.167,349.823 29.167 C 349.646 29.167,349.500 29.242,349.500 29.333 C 349.500 29.425,349.350 29.500,349.167 29.500 C 348.983 29.500,348.833 29.575,348.833 29.667 C 348.833 29.758,348.683 29.833,348.500 29.833 C 348.317 29.833,348.167 29.908,348.167 30.000 C 348.167 30.092,348.017 30.167,347.833 30.167 C 347.650 30.167,347.500 30.242,347.500 30.333 C 347.500 30.425,347.367 30.500,347.203 30.500 C 347.040 30.500,346.799 30.650,346.667 30.833 C 346.535 31.017,346.310 31.167,346.167 31.167 C 346.024 31.167,345.799 31.317,345.667 31.500 C 345.535 31.683,345.335 31.833,345.224 31.833 C 344.975 31.833,340.833 35.916,340.833 36.161 C 340.833 36.257,340.608 36.572,340.333 36.860 C 340.058 37.147,339.833 37.484,339.833 37.608 C 339.833 37.732,339.758 37.833,339.667 37.833 C 339.575 37.833,339.500 37.949,339.500 38.090 C 339.500 38.232,339.350 38.508,339.167 38.705 C 338.983 38.902,338.833 39.161,338.833 39.281 C 338.833 39.402,338.758 39.500,338.667 39.500 C 338.575 39.500,338.500 39.614,338.500 39.752 C 338.500 39.891,338.425 40.154,338.333 40.336 C 338.242 40.518,338.092 40.816,338.000 40.998 C 337.908 41.180,337.833 41.442,337.833 41.581 C 337.833 41.720,337.758 41.833,337.667 41.833 C 337.575 41.833,337.500 42.058,337.500 42.333 C 337.500 42.608,337.425 42.833,337.333 42.833 C 337.242 42.833,337.167 43.058,337.167 43.333 C 337.167 43.608,337.092 43.833,337.000 43.833 C 336.908 43.833,336.833 44.091,336.833 44.407 C 336.833 44.722,336.758 45.027,336.667 45.083 C 336.575 45.140,336.500 45.477,336.500 45.833 C 336.500 46.189,336.425 46.527,336.333 46.583 C 336.242 46.640,336.167 47.352,336.167 48.167 C 336.167 48.981,336.092 49.693,336.000 49.750 C 335.905 49.809,335.833 50.665,335.833 51.750 C 335.833 52.835,335.905 53.691,336.000 53.750 C 336.092 53.807,336.167 54.449,336.167 55.177 C 336.167 55.948,336.236 56.500,336.333 56.500 C 336.425 56.500,336.500 56.800,336.500 57.167 C 336.500 57.533,336.575 57.833,336.667 57.833 C 336.758 57.833,336.833 58.091,336.833 58.407 C 336.833 58.722,336.908 59.027,337.000 59.083 C 337.092 59.140,337.167 59.332,337.167 59.510 C 337.167 59.688,337.242 59.833,337.333 59.833 C 337.425 59.833,337.500 59.939,337.500 60.068 C 337.500 60.345,338.195 61.726,338.375 61.806 C 338.444 61.836,338.500 61.988,338.500 62.144 C 338.500 62.299,338.650 62.535,338.833 62.667 C 339.017 62.799,339.167 63.007,339.167 63.130 C 339.167 63.389,342.277 66.500,342.536 66.500 C 342.632 66.500,342.832 66.632,342.980 66.793 C 343.129 66.954,343.456 67.192,343.708 67.321 C 343.960 67.450,344.167 67.619,344.167 67.695 C 344.167 67.771,344.317 67.833,344.500 67.833 C 344.683 67.833,344.833 67.908,344.833 68.000 C 344.833 68.092,344.983 68.167,345.167 68.167 C 345.350 68.167,345.500 68.242,345.500 68.333 C 345.500 68.425,345.650 68.500,345.833 68.500 C 346.017 68.500,346.167 68.575,346.167 68.667 C 346.167 68.758,346.317 68.833,346.500 68.833 C 346.683 68.833,346.833 68.908,346.833 69.000 C 346.833 69.092,346.983 69.167,347.167 69.167 C 347.350 69.167,347.500 69.242,347.500 69.333 C 347.500 69.425,347.646 69.500,347.823 69.500 C 348.001 69.500,348.193 69.575,348.250 69.667 C 348.307 69.758,348.536 69.833,348.760 69.833 C 348.984 69.833,349.167 69.908,349.167 70.000 C 349.167 70.092,349.392 70.167,349.667 70.167 C 349.942 70.167,350.167 70.242,350.167 70.333 C 350.167 70.425,350.392 70.500,350.667 70.500 C 350.942 70.500,351.167 70.575,351.167 70.667 C 351.167 70.758,351.392 70.833,351.667 70.833 C 351.942 70.833,352.167 70.908,352.167 71.000 C 352.167 71.092,352.425 71.167,352.740 71.167 C 353.056 71.167,353.360 71.242,353.417 71.333 C 353.473 71.425,353.740 71.500,354.010 71.500 C 354.279 71.500,354.500 71.575,354.500 71.667 C 354.500 71.758,354.721 71.833,354.990 71.833 C 355.260 71.833,355.527 71.908,355.583 72.000 C 355.640 72.092,355.944 72.167,356.260 72.167 C 356.575 72.167,356.833 72.242,356.833 72.333 C 356.833 72.425,357.058 72.500,357.333 72.500 C 357.608 72.500,357.833 72.575,357.833 72.667 C 357.833 72.758,358.054 72.833,358.323 72.833 C 358.593 72.833,358.860 72.908,358.917 73.000 C 358.973 73.092,359.278 73.167,359.593 73.167 C 359.909 73.167,360.167 73.242,360.167 73.333 C 360.167 73.425,360.392 73.500,360.667 73.500 C 360.942 73.500,361.167 73.575,361.167 73.667 C 361.167 73.758,361.467 73.833,361.833 73.833 C 362.200 73.833,362.500 73.908,362.500 74.000 C 362.500 74.092,362.725 74.167,363.000 74.167 C 363.275 74.167,363.500 74.242,363.500 74.333 C 363.500 74.425,363.721 74.500,363.990 74.500 C 364.260 74.500,364.527 74.575,364.583 74.667 C 364.640 74.758,364.944 74.833,365.260 74.833 C 365.575 74.833,365.833 74.908,365.833 75.000 C 365.833 75.092,366.058 75.167,366.333 75.167 C 366.608 75.167,366.833 75.242,366.833 75.333 C 366.833 75.425,367.091 75.500,367.407 75.500 C 367.722 75.500,368.027 75.575,368.083 75.667 C 368.140 75.758,368.407 75.833,368.677 75.833 C 368.946 75.833,369.167 75.908,369.167 76.000 C 369.167 76.092,369.387 76.167,369.657 76.167 C 369.926 76.167,370.193 76.242,370.250 76.333 C 370.307 76.425,370.611 76.500,370.927 76.500 C 371.242 76.500,371.500 76.575,371.500 76.667 C 371.500 76.758,371.725 76.833,372.000 76.833 C 372.275 76.833,372.500 76.908,372.500 77.000 C 372.500 77.092,372.721 77.167,372.990 77.167 C 373.260 77.167,373.527 77.242,373.583 77.333 C 373.640 77.425,373.944 77.500,374.260 77.500 C 374.575 77.500,374.833 77.575,374.833 77.667 C 374.833 77.758,375.058 77.833,375.333 77.833 C 375.608 77.833,375.833 77.908,375.833 78.000 C 375.833 78.092,376.007 78.167,376.219 78.167 C 376.430 78.167,376.765 78.317,376.962 78.500 C 377.158 78.683,377.379 78.833,377.451 78.834 C 377.681 78.834,378.410 79.566,378.654 80.042 C 378.784 80.294,378.952 80.500,379.028 80.500 C 379.104 80.500,379.167 80.650,379.167 80.833 C 379.167 81.017,379.242 81.167,379.333 81.167 C 379.425 81.167,379.500 81.317,379.500 81.500 C 379.500 81.683,379.575 81.833,379.667 81.833 C 379.758 81.833,379.833 82.208,379.833 82.667 C 379.833 83.125,379.908 83.500,380.000 83.500 C 380.092 83.500,380.167 83.725,380.167 84.000 C 380.167 84.275,380.092 84.500,380.000 84.500 C 379.908 84.500,379.833 84.800,379.833 85.167 C 379.833 85.533,379.758 85.833,379.667 85.833 C 379.575 85.833,379.500 86.058,379.500 86.333 C 379.500 86.608,379.425 86.833,379.333 86.833 C 379.242 86.833,379.167 86.945,379.167 87.080 C 379.167 87.620,376.597 90.156,376.042 90.164 C 375.927 90.165,375.833 90.242,375.833 90.333 C 375.833 90.425,375.688 90.500,375.510 90.500 C 375.332 90.500,375.140 90.575,375.083 90.667 C 375.027 90.758,374.797 90.833,374.573 90.833 C 374.350 90.833,374.167 90.908,374.167 91.000 C 374.167 91.092,373.834 91.167,373.427 91.167 C 373.019 91.167,372.640 91.242,372.583 91.333 C 372.523 91.430,371.585 91.500,370.333 91.500 C 369.082 91.500,368.143 91.430,368.083 91.333 C 368.027 91.242,367.572 91.167,367.073 91.167 C 366.575 91.167,366.167 91.092,366.167 91.000 C 366.167 90.907,365.722 90.833,365.167 90.833 C 364.611 90.833,364.167 90.759,364.167 90.667 C 364.167 90.575,363.867 90.500,363.500 90.500 C 363.133 90.500,362.833 90.425,362.833 90.333 C 362.833 90.242,362.533 90.167,362.167 90.167 C 361.800 90.167,361.500 90.092,361.500 90.000 C 361.500 89.908,361.275 89.833,361.000 89.833 C 360.725 89.833,360.500 89.758,360.500 89.667 C 360.500 89.575,360.275 89.500,360.000 89.500 C 359.725 89.500,359.500 89.425,359.500 89.333 C 359.500 89.242,359.350 89.167,359.167 89.167 C 358.983 89.167,358.833 89.092,358.833 89.000 C 358.833 88.908,358.683 88.833,358.500 88.833 C 358.317 88.833,358.167 88.758,358.167 88.667 C 358.167 88.575,358.070 88.500,357.952 88.500 C 357.833 88.500,357.405 88.200,357.000 87.833 C 356.595 87.467,356.183 87.167,356.084 87.167 C 355.986 87.167,355.771 86.940,355.607 86.662 C 355.443 86.385,355.127 85.976,354.905 85.753 C 354.682 85.531,354.500 85.233,354.500 85.091 C 354.500 84.949,354.437 84.833,354.360 84.833 C 354.282 84.833,354.049 84.477,353.841 84.042 C 353.634 83.606,353.397 83.120,353.315 82.961 C 353.233 82.801,353.167 82.558,353.167 82.419 C 353.167 82.280,353.092 82.167,353.000 82.167 C 352.908 82.167,352.833 81.974,352.833 81.738 C 352.833 80.803,353.172 80.833,342.762 80.833 L 333.167 80.833 333.167 81.833 C 333.167 82.389,333.241 82.833,333.333 82.833 C 333.430 82.833,333.500 83.358,333.500 84.073 C 333.500 84.756,333.575 85.360,333.667 85.417 C 333.758 85.473,333.833 85.815,333.833 86.177 C 333.833 86.538,333.908 86.833,334.000 86.833 C 334.092 86.833,334.167 87.091,334.167 87.407 C 334.167 87.722,334.242 88.027,334.333 88.083 C 334.425 88.140,334.500 88.365,334.500 88.583 C 334.500 88.802,334.575 89.027,334.667 89.083 C 334.758 89.140,334.833 89.332,334.833 89.510 C 334.833 89.688,334.908 89.833,335.000 89.833 C 335.092 89.833,335.167 89.947,335.167 90.086 C 335.167 90.224,335.233 90.468,335.315 90.627 C 335.397 90.786,335.634 91.273,335.841 91.708 C 336.049 92.144,336.282 92.500,336.360 92.500 C 336.437 92.500,336.500 92.650,336.500 92.833 C 336.500 93.017,336.575 93.167,336.667 93.167 C 336.758 93.167,336.833 93.265,336.833 93.385 C 336.833 93.505,336.983 93.765,337.167 93.962 C 337.350 94.158,337.500 94.405,337.500 94.509 C 337.500 94.614,337.725 94.910,338.000 95.167 C 338.275 95.424,338.500 95.713,338.500 95.810 C 338.500 96.031,341.620 99.167,341.840 99.167 C 341.928 99.167,342.309 99.467,342.687 99.833 C 343.064 100.200,343.460 100.500,343.567 100.500 C 343.673 100.500,343.868 100.650,344.000 100.833 C 344.132 101.017,344.339 101.167,344.460 101.167 C 344.582 101.167,344.842 101.317,345.038 101.500 C 345.235 101.683,345.495 101.833,345.615 101.833 C 345.735 101.833,345.833 101.908,345.833 102.000 C 345.833 102.092,345.983 102.167,346.167 102.167 C 346.350 102.167,346.501 102.223,346.501 102.292 C 346.502 102.360,346.671 102.499,346.876 102.601 C 347.082 102.702,347.689 103.020,348.225 103.309 C 348.762 103.597,349.343 103.833,349.517 103.833 C 349.691 103.833,349.833 103.908,349.833 104.000 C 349.833 104.092,349.983 104.167,350.167 104.167 C 350.350 104.167,350.500 104.242,350.500 104.333 C 350.500 104.425,350.725 104.500,351.000 104.500 C 351.275 104.500,351.500 104.575,351.500 104.667 C 351.500 104.758,351.758 104.833,352.073 104.833 C 352.389 104.833,352.693 104.908,352.750 105.000 C 352.807 105.092,353.107 105.167,353.417 105.167 C 353.727 105.167,354.027 105.242,354.083 105.333 C 354.140 105.425,354.477 105.500,354.833 105.500 C 355.189 105.500,355.527 105.575,355.583 105.667 C 355.640 105.758,356.094 105.833,356.593 105.833 C 357.092 105.833,357.500 105.908,357.500 106.000 C 357.500 106.095,357.989 106.167,358.633 106.167 C 359.318 106.167,359.849 106.249,359.975 106.375 C 360.135 106.535,361.869 106.583,367.500 106.583 C 373.131 106.583,374.865 106.535,375.025 106.375 C 375.147 106.253,375.664 106.167,376.273 106.167 C 376.846 106.167,377.360 106.092,377.417 106.000 C 377.473 105.908,377.890 105.833,378.343 105.833 C 378.796 105.833,379.167 105.758,379.167 105.667 C 379.167 105.575,379.542 105.500,380.000 105.500 C 380.458 105.500,380.833 105.425,380.833 105.333 C 380.833 105.242,381.091 105.167,381.407 105.167 C 381.722 105.167,382.027 105.092,382.083 105.000 C 382.140 104.908,382.407 104.833,382.677 104.833 C 382.946 104.833,383.167 104.758,383.167 104.667 C 383.167 104.575,383.392 104.500,383.667 104.500 C 383.942 104.500,384.167 104.425,384.167 104.333 C 384.167 104.242,384.392 104.167,384.667 104.167 C 384.942 104.167,385.167 104.092,385.167 104.000 C 385.167 103.908,385.317 103.833,385.500 103.833 C 385.683 103.833,385.833 103.758,385.833 103.667 C 385.833 103.575,385.983 103.500,386.167 103.500 C 386.350 103.500,386.500 103.425,386.500 103.333 C 386.500 103.242,386.650 103.167,386.833 103.167 C 387.017 103.167,387.167 103.092,387.167 103.000 C 387.167 102.908,387.317 102.833,387.500 102.833 C 387.683 102.833,387.833 102.758,387.833 102.667 C 387.833 102.575,387.983 102.500,388.167 102.500 C 388.350 102.500,388.500 102.425,388.500 102.333 C 388.500 102.242,388.598 102.167,388.719 102.167 C 388.839 102.167,389.098 102.017,389.295 101.833 C 389.492 101.650,389.720 101.500,389.802 101.500 C 389.884 101.500,390.186 101.275,390.474 101.000 C 390.762 100.725,391.070 100.500,391.159 100.500 C 391.379 100.500,394.500 97.365,394.500 97.144 C 394.500 97.047,394.725 96.757,395.000 96.500 C 395.275 96.243,395.500 95.930,395.500 95.803 C 395.500 95.677,395.650 95.465,395.833 95.333 C 396.017 95.201,396.167 94.960,396.167 94.797 C 396.167 94.633,396.242 94.500,396.333 94.500 C 396.425 94.500,396.500 94.402,396.500 94.281 C 396.500 94.161,396.650 93.902,396.833 93.705 C 397.017 93.508,397.167 93.232,397.167 93.090 C 397.167 92.949,397.242 92.833,397.333 92.833 C 397.425 92.833,397.500 92.683,397.500 92.500 C 397.500 92.317,397.575 92.167,397.667 92.167 C 397.758 92.167,397.833 91.984,397.833 91.760 C 397.833 91.536,397.908 91.307,398.000 91.250 C 398.092 91.193,398.167 91.001,398.167 90.823 C 398.167 90.646,398.242 90.500,398.333 90.500 C 398.425 90.500,398.500 90.275,398.500 90.000 C 398.500 89.725,398.575 89.500,398.667 89.500 C 398.758 89.500,398.833 89.275,398.833 89.000 C 398.833 88.725,398.908 88.500,399.000 88.500 C 399.092 88.500,399.167 88.275,399.167 88.000 C 399.167 87.725,399.242 87.500,399.333 87.500 C 399.425 87.500,399.500 87.215,399.500 86.867 C 399.500 86.518,399.594 86.140,399.708 86.025 C 399.867 85.867,399.917 84.474,399.917 80.214 C 399.917 75.880,399.869 74.595,399.708 74.542 C 399.594 74.503,399.500 74.253,399.500 73.986 C 399.500 73.719,399.425 73.500,399.333 73.500 C 399.242 73.500,399.167 73.275,399.167 73.000 C 399.167 72.725,399.092 72.500,399.000 72.500 C 398.908 72.500,398.833 72.350,398.833 72.167 C 398.833 71.983,398.758 71.833,398.667 71.833 C 398.575 71.833,398.500 71.683,398.500 71.500 C 398.500 71.317,398.425 71.167,398.333 71.167 C 398.242 71.167,398.167 71.017,398.167 70.833 C 398.167 70.650,398.092 70.500,398.000 70.500 C 397.908 70.500,397.833 70.350,397.833 70.167 C 397.833 69.983,397.758 69.833,397.667 69.833 C 397.575 69.833,397.500 69.735,397.500 69.615 C 397.500 69.495,397.350 69.235,397.167 69.038 C 396.983 68.842,396.833 68.614,396.833 68.533 C 396.833 68.453,396.515 68.038,396.125 67.612 C 395.735 67.186,395.092 66.461,394.695 66.002 C 394.298 65.543,393.904 65.167,393.820 65.167 C 393.736 65.167,393.358 64.867,392.980 64.500 C 392.602 64.133,392.206 63.833,392.100 63.833 C 391.994 63.833,391.799 63.683,391.667 63.500 C 391.535 63.317,391.293 63.167,391.130 63.167 C 390.967 63.167,390.833 63.100,390.833 63.019 C 390.833 62.938,390.702 62.831,390.542 62.780 C 390.381 62.729,390.025 62.559,389.750 62.402 C 388.952 61.946,388.688 61.833,388.419 61.833 C 388.280 61.833,388.167 61.758,388.167 61.667 C 388.167 61.575,387.942 61.500,387.667 61.500 C 387.392 61.500,387.167 61.425,387.167 61.333 C 387.167 61.242,386.942 61.167,386.667 61.167 C 386.392 61.167,386.167 61.092,386.167 61.000 C 386.167 60.908,385.867 60.833,385.500 60.833 C 385.133 60.833,384.833 60.758,384.833 60.667 C 384.833 60.575,384.613 60.500,384.343 60.500 C 384.074 60.500,383.807 60.425,383.750 60.333 C 383.693 60.242,383.389 60.167,383.073 60.167 C 382.758 60.167,382.500 60.092,382.500 60.000 C 382.500 59.908,382.279 59.833,382.010 59.833 C 381.740 59.833,381.473 59.758,381.417 59.667 C 381.360 59.575,381.056 59.500,380.740 59.500 C 380.425 59.500,380.167 59.425,380.167 59.333 C 380.167 59.242,379.909 59.167,379.593 59.167 C 379.278 59.167,378.973 59.092,378.917 59.000 C 378.860 58.908,378.593 58.833,378.323 58.833 C 378.054 58.833,377.833 58.758,377.833 58.667 C 377.833 58.575,377.533 58.500,377.167 58.500 C 376.800 58.500,376.500 58.425,376.500 58.333 C 376.500 58.242,376.275 58.167,376.000 58.167 C 375.725 58.167,375.500 58.092,375.500 58.000 C 375.500 57.908,375.200 57.833,374.833 57.833 C 374.467 57.833,374.167 57.758,374.167 57.667 C 374.167 57.575,373.946 57.500,373.677 57.500 C 373.407 57.500,373.140 57.425,373.083 57.333 C 373.027 57.242,372.722 57.167,372.407 57.167 C 372.091 57.167,371.833 57.092,371.833 57.000 C 371.833 56.908,371.613 56.833,371.343 56.833 C 371.074 56.833,370.807 56.758,370.750 56.667 C 370.693 56.575,370.389 56.500,370.073 56.500 C 369.758 56.500,369.500 56.425,369.500 56.333 C 369.500 56.242,369.279 56.167,369.010 56.167 C 368.740 56.167,368.473 56.092,368.417 56.000 C 368.360 55.908,368.056 55.833,367.740 55.833 C 367.425 55.833,367.167 55.758,367.167 55.667 C 367.167 55.575,366.909 55.500,366.593 55.500 C 366.278 55.500,365.973 55.425,365.917 55.333 C 365.860 55.242,365.593 55.167,365.323 55.167 C 365.054 55.167,364.833 55.092,364.833 55.000 C 364.833 54.908,364.533 54.833,364.167 54.833 C 363.800 54.833,363.500 54.758,363.500 54.667 C 363.500 54.575,363.275 54.500,363.000 54.500 C 362.725 54.500,362.500 54.425,362.500 54.333 C 362.500 54.242,362.200 54.167,361.833 54.167 C 361.467 54.167,361.167 54.092,361.167 54.000 C 361.167 53.908,360.946 53.833,360.677 53.833 C 360.407 53.833,360.140 53.758,360.083 53.667 C 360.027 53.575,359.722 53.500,359.407 53.500 C 359.091 53.500,358.833 53.425,358.833 53.333 C 358.833 53.242,358.736 53.167,358.617 53.167 C 358.310 53.167,357.503 52.775,357.501 52.625 C 357.501 52.556,357.386 52.500,357.246 52.500 C 356.915 52.500,355.500 51.085,355.500 50.754 C 355.500 50.614,355.425 50.500,355.333 50.500 C 355.242 50.500,355.167 50.275,355.167 50.000 C 355.167 49.725,355.092 49.500,355.000 49.500 C 354.908 49.500,354.833 49.125,354.833 48.667 C 354.833 48.208,354.908 47.833,355.000 47.833 C 355.092 47.833,355.167 47.608,355.167 47.333 C 355.167 47.058,355.242 46.833,355.333 46.833 C 355.425 46.833,355.500 46.683,355.500 46.500 C 355.500 46.317,355.575 46.167,355.667 46.167 C 355.758 46.167,355.833 46.049,355.833 45.906 C 355.833 45.566,357.566 43.833,357.906 43.833 C 358.049 43.833,358.167 43.777,358.168 43.708 C 358.170 43.559,358.977 43.167,359.283 43.167 C 359.402 43.167,359.500 43.092,359.500 43.000 C 359.500 42.908,359.650 42.833,359.833 42.833 C 360.017 42.833,360.167 42.758,360.167 42.667 C 360.167 42.575,360.392 42.500,360.667 42.500 C 360.942 42.500,361.167 42.425,361.167 42.333 C 361.167 42.242,361.425 42.167,361.740 42.167 C 362.056 42.167,362.360 42.092,362.417 42.000 C 362.473 41.908,362.965 41.833,363.510 41.833 C 364.059 41.833,364.500 41.759,364.500 41.667 C 364.500 41.569,365.056 41.500,365.833 41.500 C 366.611 41.500,367.167 41.569,367.167 41.667 C 367.167 41.761,367.636 41.833,368.240 41.833 C 368.831 41.833,369.360 41.908,369.417 42.000 C 369.473 42.092,369.815 42.167,370.177 42.167 C 370.538 42.167,370.833 42.242,370.833 42.333 C 370.833 42.425,371.091 42.500,371.407 42.500 C 371.722 42.500,372.027 42.575,372.083 42.667 C 372.140 42.758,372.365 42.833,372.583 42.833 C 372.802 42.833,373.027 42.908,373.083 43.000 C 373.140 43.092,373.332 43.167,373.510 43.167 C 373.688 43.167,373.833 43.242,373.833 43.333 C 373.833 43.425,373.976 43.500,374.151 43.500 C 374.529 43.500,375.833 44.170,375.833 44.364 C 375.833 44.439,375.947 44.500,376.086 44.500 C 376.416 44.500,378.500 46.584,378.500 46.914 C 378.500 47.053,378.575 47.167,378.667 47.167 C 378.758 47.167,378.833 47.392,378.833 47.667 C 378.833 47.942,378.908 48.167,379.000 48.167 C 379.092 48.167,379.167 48.500,379.167 48.907 C 379.167 49.314,379.242 49.693,379.333 49.750 C 379.425 49.807,379.500 50.449,379.500 51.177 L 379.500 52.500 389.000 52.500 L 398.500 52.500 398.500 50.593 C 398.500 49.502,398.429 48.642,398.333 48.583 C 398.242 48.527,398.167 47.960,398.167 47.323 C 398.167 46.663,398.095 46.167,398.000 46.167 C 397.908 46.167,397.833 45.834,397.833 45.427 C 397.833 45.019,397.758 44.640,397.667 44.583 C 397.575 44.527,397.500 44.260,397.500 43.990 C 397.500 43.721,397.425 43.500,397.333 43.500 C 397.242 43.500,397.167 43.275,397.167 43.000 C 397.167 42.725,397.092 42.500,397.000 42.500 C 396.908 42.500,396.833 42.350,396.833 42.167 C 396.833 41.983,396.758 41.833,396.667 41.833 C 396.575 41.833,396.500 41.683,396.500 41.500 C 396.500 41.317,396.425 41.167,396.333 41.167 C 396.242 41.167,396.167 41.017,396.167 40.833 C 396.167 40.650,396.092 40.500,396.000 40.500 C 395.908 40.500,395.833 40.350,395.833 40.167 C 395.833 39.983,395.758 39.833,395.667 39.833 C 395.575 39.833,395.500 39.735,395.500 39.615 C 395.500 39.495,395.350 39.235,395.167 39.038 C 394.983 38.842,394.833 38.614,394.833 38.532 C 394.833 38.450,394.626 38.165,394.373 37.900 C 394.120 37.634,393.729 37.154,393.505 36.833 C 393.053 36.187,391.001 34.167,390.797 34.167 C 390.725 34.167,390.358 33.867,389.980 33.500 C 389.602 33.133,389.206 32.833,389.100 32.833 C 388.994 32.833,388.799 32.683,388.667 32.500 C 388.535 32.317,388.310 32.167,388.167 32.167 C 388.024 32.167,387.799 32.017,387.667 31.833 C 387.535 31.650,387.310 31.500,387.167 31.500 C 387.024 31.500,386.799 31.350,386.667 31.167 C 386.535 30.983,386.293 30.833,386.130 30.833 C 385.967 30.833,385.833 30.758,385.833 30.667 C 385.833 30.575,385.683 30.500,385.500 30.500 C 385.317 30.500,385.167 30.425,385.167 30.333 C 385.167 30.242,385.017 30.167,384.833 30.167 C 384.650 30.167,384.500 30.092,384.500 30.000 C 384.500 29.908,384.350 29.833,384.167 29.833 C 383.983 29.833,383.833 29.758,383.833 29.667 C 383.833 29.575,383.683 29.500,383.500 29.500 C 383.317 29.500,383.167 29.425,383.167 29.333 C 383.167 29.242,382.984 29.167,382.760 29.167 C 382.536 29.167,382.307 29.092,382.250 29.000 C 382.193 28.908,382.001 28.833,381.823 28.833 C 381.646 28.833,381.500 28.758,381.500 28.667 C 381.500 28.575,381.275 28.500,381.000 28.500 C 380.725 28.500,380.500 28.425,380.500 28.333 C 380.500 28.242,380.275 28.167,380.000 28.167 C 379.725 28.167,379.500 28.092,379.500 28.000 C 379.500 27.908,379.279 27.833,379.010 27.833 C 378.740 27.833,378.473 27.758,378.417 27.667 C 378.360 27.575,378.056 27.500,377.740 27.500 C 377.425 27.500,377.167 27.425,377.167 27.333 C 377.167 27.242,376.792 27.167,376.333 27.167 C 375.875 27.167,375.500 27.092,375.500 27.000 C 375.500 26.908,375.129 26.833,374.677 26.833 C 374.224 26.833,373.807 26.758,373.750 26.667 C 373.693 26.575,373.093 26.500,372.417 26.500 C 371.740 26.500,371.140 26.425,371.083 26.333 C 371.019 26.229,369.252 26.167,366.333 26.167 C 363.415 26.167,361.648 26.229,361.583 26.333 M204.500 65.500 L 204.500 103.500 214.333 103.500 L 224.167 103.500 224.167 65.500 L 224.167 27.500 214.333 27.500 L 204.500 27.500 204.500 65.500 M132.167 71.990 C 132.167 74.137,132.103 75.520,132.000 75.583 C 131.908 75.640,131.833 76.165,131.833 76.750 C 131.833 77.335,131.758 77.860,131.667 77.917 C 131.575 77.973,131.500 78.353,131.500 78.760 C 131.500 79.167,131.425 79.500,131.333 79.500 C 131.242 79.500,131.167 79.725,131.167 80.000 C 131.167 80.275,131.092 80.500,131.000 80.500 C 130.908 80.500,130.833 80.725,130.833 81.000 C 130.833 81.275,130.758 81.500,130.667 81.500 C 130.575 81.500,130.500 81.650,130.500 81.833 C 130.500 82.017,130.425 82.167,130.333 82.167 C 130.242 82.167,130.167 82.317,130.167 82.500 C 130.167 82.683,130.092 82.833,130.000 82.833 C 129.908 82.833,129.833 82.983,129.833 83.167 C 129.833 83.350,129.771 83.500,129.695 83.500 C 129.619 83.500,129.450 83.703,129.320 83.952 C 129.063 84.441,128.150 85.521,127.527 86.072 C 127.313 86.262,126.884 86.660,126.574 86.958 C 126.265 87.256,125.902 87.500,125.769 87.500 C 125.637 87.500,125.503 87.556,125.472 87.625 C 125.394 87.801,123.334 88.833,123.060 88.833 C 122.935 88.833,122.833 88.908,122.833 89.000 C 122.833 89.092,122.608 89.167,122.333 89.167 C 122.058 89.167,121.833 89.242,121.833 89.333 C 121.833 89.425,121.533 89.500,121.167 89.500 C 120.800 89.500,120.500 89.575,120.500 89.667 C 120.500 89.758,120.125 89.833,119.667 89.833 C 119.208 89.833,118.833 89.908,118.833 90.000 C 118.833 90.105,117.778 90.167,116.000 90.167 C 114.222 90.167,113.167 90.105,113.167 90.000 C 113.167 89.908,112.867 89.833,112.500 89.833 C 112.133 89.833,111.833 89.758,111.833 89.667 C 111.833 89.575,111.683 89.500,111.500 89.500 C 111.317 89.500,111.167 89.425,111.167 89.333 C 111.167 89.242,111.033 89.167,110.870 89.167 C 110.707 89.167,110.465 89.017,110.333 88.833 C 110.201 88.650,109.994 88.500,109.872 88.500 C 109.634 88.500,108.834 87.767,108.833 87.549 C 108.833 87.476,108.608 87.154,108.333 86.833 C 108.059 86.513,107.834 86.156,107.834 86.042 C 107.834 85.927,107.758 85.833,107.667 85.833 C 107.575 85.833,107.500 85.608,107.500 85.333 C 107.500 85.058,107.425 84.833,107.333 84.833 C 107.242 84.833,107.167 84.608,107.167 84.333 C 107.167 84.058,107.092 83.833,107.000 83.833 C 106.907 83.833,106.833 83.389,106.833 82.833 C 106.833 82.278,106.759 81.833,106.667 81.833 C 106.575 81.833,106.500 81.608,106.500 81.333 C 106.500 81.058,106.575 80.833,106.667 80.833 C 106.758 80.833,106.833 80.425,106.833 79.927 C 106.833 79.428,106.908 78.973,107.000 78.917 C 107.092 78.860,107.167 78.668,107.167 78.490 C 107.167 78.312,107.242 78.167,107.333 78.167 C 107.425 78.167,107.500 78.069,107.500 77.950 C 107.500 77.643,107.892 76.836,108.042 76.835 C 108.110 76.834,108.167 76.716,108.167 76.572 C 108.167 76.251,110.610 73.833,110.934 73.833 C 111.062 73.833,111.167 73.758,111.167 73.667 C 111.167 73.575,111.317 73.500,111.500 73.500 C 111.683 73.500,111.834 73.444,111.835 73.375 C 111.836 73.225,112.643 72.833,112.950 72.833 C 113.069 72.833,113.167 72.758,113.167 72.667 C 113.167 72.575,113.392 72.500,113.667 72.500 C 113.942 72.500,114.167 72.425,114.167 72.333 C 114.167 72.242,114.500 72.167,114.907 72.167 C 115.314 72.167,115.693 72.092,115.750 72.000 C 115.807 71.908,116.294 71.833,116.833 71.833 C 117.373 71.833,117.860 71.758,117.917 71.667 C 117.973 71.575,118.653 71.500,119.427 71.500 C 120.253 71.500,120.833 71.431,120.833 71.333 C 120.833 71.236,121.389 71.167,122.167 71.167 C 122.944 71.167,123.500 71.097,123.500 71.000 C 123.500 70.908,123.908 70.833,124.407 70.833 C 124.906 70.833,125.360 70.758,125.417 70.667 C 125.473 70.575,125.848 70.500,126.250 70.500 C 126.652 70.500,127.027 70.425,127.083 70.333 C 127.140 70.242,127.407 70.167,127.677 70.167 C 127.946 70.167,128.167 70.092,128.167 70.000 C 128.167 69.908,128.387 69.833,128.657 69.833 C 128.926 69.833,129.193 69.758,129.250 69.667 C 129.307 69.575,129.536 69.500,129.760 69.500 C 129.984 69.500,130.167 69.425,130.167 69.333 C 130.167 69.242,130.280 69.167,130.419 69.167 C 130.646 69.167,130.813 69.098,131.667 68.651 C 131.804 68.579,131.973 68.515,132.042 68.510 C 132.110 68.504,132.167 70.071,132.167 71.990 M310.833 71.657 C 310.833 73.582,310.768 74.854,310.667 74.917 C 310.575 74.973,310.500 75.578,310.500 76.260 C 310.500 76.976,310.430 77.500,310.333 77.500 C 310.242 77.500,310.167 77.875,310.167 78.333 C 310.167 78.792,310.092 79.167,310.000 79.167 C 309.908 79.167,309.833 79.387,309.833 79.657 C 309.833 79.926,309.758 80.193,309.667 80.250 C 309.575 80.307,309.500 80.532,309.500 80.750 C 309.500 80.968,309.425 81.193,309.333 81.250 C 309.242 81.307,309.167 81.536,309.167 81.760 C 309.167 81.984,309.092 82.167,309.000 82.167 C 308.908 82.167,308.833 82.282,308.833 82.424 C 308.833 82.565,308.683 82.842,308.500 83.038 C 308.317 83.235,308.167 83.495,308.167 83.615 C 308.167 83.735,308.092 83.833,308.000 83.833 C 307.908 83.833,307.833 83.947,307.833 84.086 C 307.833 84.394,305.254 86.991,304.622 87.320 C 304.371 87.450,304.167 87.619,304.167 87.695 C 304.167 87.771,304.017 87.833,303.833 87.833 C 303.650 87.833,303.500 87.908,303.500 88.000 C 303.500 88.092,303.350 88.167,303.167 88.167 C 302.983 88.167,302.833 88.242,302.833 88.333 C 302.833 88.425,302.683 88.500,302.500 88.500 C 302.317 88.500,302.167 88.575,302.167 88.667 C 302.167 88.758,302.021 88.833,301.843 88.833 C 301.665 88.833,301.473 88.908,301.417 89.000 C 301.360 89.092,301.135 89.167,300.917 89.167 C 300.698 89.167,300.473 89.242,300.417 89.333 C 300.360 89.425,300.056 89.500,299.740 89.500 C 299.425 89.500,299.167 89.575,299.167 89.667 C 299.167 89.758,298.792 89.833,298.333 89.833 C 297.875 89.833,297.500 89.908,297.500 90.000 C 297.500 90.105,296.448 90.167,294.677 90.167 C 292.974 90.167,291.812 90.100,291.750 90.000 C 291.693 89.908,291.389 89.833,291.073 89.833 C 290.758 89.833,290.500 89.758,290.500 89.667 C 290.500 89.575,290.350 89.500,290.167 89.500 C 289.983 89.500,289.833 89.425,289.833 89.333 C 289.833 89.242,289.683 89.167,289.500 89.167 C 289.317 89.167,289.167 89.092,289.167 89.000 C 289.167 88.908,289.059 88.833,288.928 88.833 C 288.616 88.833,286.833 87.050,286.833 86.739 C 286.833 86.608,286.758 86.500,286.667 86.500 C 286.575 86.500,286.500 86.350,286.500 86.167 C 286.500 85.983,286.425 85.833,286.333 85.833 C 286.242 85.833,286.167 85.683,286.167 85.500 C 286.167 85.317,286.092 85.167,286.000 85.167 C 285.908 85.167,285.833 84.942,285.833 84.667 C 285.833 84.392,285.758 84.167,285.667 84.167 C 285.575 84.167,285.500 83.834,285.500 83.427 C 285.500 83.019,285.425 82.640,285.333 82.583 C 285.242 82.527,285.167 81.960,285.167 81.323 C 285.167 80.663,285.238 80.167,285.333 80.167 C 285.425 80.167,285.500 79.867,285.500 79.500 C 285.500 79.133,285.575 78.833,285.667 78.833 C 285.758 78.833,285.833 78.608,285.833 78.333 C 285.833 78.058,285.908 77.833,286.000 77.833 C 286.092 77.833,286.167 77.683,286.167 77.500 C 286.167 77.317,286.229 77.167,286.305 77.167 C 286.381 77.167,286.550 76.962,286.680 76.712 C 286.963 76.167,289.253 73.833,289.504 73.833 C 289.601 73.833,289.842 73.683,290.038 73.500 C 290.235 73.317,290.495 73.167,290.615 73.167 C 290.735 73.167,290.833 73.092,290.833 73.000 C 290.833 72.908,291.016 72.833,291.240 72.833 C 291.464 72.833,291.693 72.758,291.750 72.667 C 291.807 72.575,292.032 72.500,292.250 72.500 C 292.468 72.500,292.693 72.425,292.750 72.333 C 292.807 72.242,293.144 72.167,293.500 72.167 C 293.856 72.167,294.193 72.092,294.250 72.000 C 294.307 71.908,294.836 71.833,295.427 71.833 C 296.031 71.833,296.500 71.761,296.500 71.667 C 296.500 71.569,297.080 71.500,297.907 71.500 C 298.681 71.500,299.360 71.425,299.417 71.333 C 299.473 71.242,300.073 71.167,300.750 71.167 C 301.427 71.167,302.027 71.092,302.083 71.000 C 302.140 70.908,302.590 70.833,303.083 70.833 C 303.577 70.833,304.027 70.758,304.083 70.667 C 304.140 70.575,304.482 70.500,304.843 70.500 C 305.204 70.500,305.500 70.425,305.500 70.333 C 305.500 70.242,305.800 70.167,306.167 70.167 C 306.533 70.167,306.833 70.092,306.833 70.000 C 306.833 69.908,307.058 69.833,307.333 69.833 C 307.608 69.833,307.833 69.758,307.833 69.667 C 307.833 69.575,308.058 69.500,308.333 69.500 C 308.608 69.500,308.833 69.425,308.833 69.333 C 308.833 69.242,308.983 69.167,309.167 69.167 C 309.350 69.167,309.500 69.092,309.500 69.000 C 309.500 68.908,309.650 68.833,309.833 68.833 C 310.017 68.833,310.167 68.758,310.167 68.667 C 310.167 68.575,310.317 68.500,310.500 68.500 C 310.822 68.500,310.833 68.611,310.833 71.657 " stroke="none" fill="#1c1c24" fill-rule="evenodd"></path><path id="path1" d="" stroke="none" fill="#201c24" fill-rule="evenodd"></path><path id="path2" d="" stroke="none" fill="#201c24" fill-rule="evenodd"></path><path id="path3" d="" stroke="none" fill="#201c24" fill-rule="evenodd"></path><path id="path4" d="" stroke="none" fill="#201c24" fill-rule="evenodd"></path><path id="path5" d="" stroke="none" fill="#201c24" fill-rule="evenodd"></path><path id="path6" d="" stroke="none" fill="#201c24" fill-rule="evenodd"></path></g></svg>